<svg xmlns="http://www.w3.org/2000/svg" viewBox="0 11.300000190734863 275.1000061035156 47.20000076293945" data-asc="0.968" width="275.1000061035156" height="47.20000076293945"><defs/><g fill="#ffffff"><g transform="translate(0, 0)"><path d="M11.35 29.15L28.20 29.15L26.85 35.65L10.05 35.65L11.35 29.15M8.15 48.40L0 48.40L7.00 13.40L33.45 13.40L32.10 19.90L13.80 19.90L8.15 48.40ZM31.45 48.40L36.80 21.50L44.20 21.50L42.65 29.15L41.95 26.95Q43.75 23.70 46.65 22.40Q49.55 21.10 53.60 21.10L52.20 28.30Q51.70 28.25 51.28 28.22Q50.85 28.20 50.40 28.20Q46.95 28.20 44.78 29.90Q42.60 31.60 41.85 35.40L39.25 48.40L31.45 48.40ZM67.30 48.80Q63.10 48.80 60.03 47.30Q56.95 45.80 55.25 43.10Q53.55 40.40 53.55 36.75Q53.55 32.25 55.58 28.72Q57.60 25.20 61.18 23.15Q64.75 21.10 69.40 21.10Q73.35 21.10 76.20 22.57Q79.05 24.05 80.63 26.67Q82.20 29.30 82.20 32.95Q82.20 34 82.08 35.05Q81.95 36.10 81.75 37.05L59.50 37.05L60.30 32.50L78.10 32.50L74.90 33.90Q75.30 31.65 74.65 30.12Q74 28.60 72.55 27.77Q71.10 26.95 69.05 26.95Q66.50 26.95 64.73 28.17Q62.95 29.40 62.05 31.55Q61.15 33.70 61.15 36.40Q61.15 39.50 62.88 41.02Q64.60 42.55 68.10 42.55Q70.15 42.55 72.05 41.90Q73.95 41.25 75.30 40.05L78.55 45.20Q76.20 47.05 73.28 47.92Q70.35 48.80 67.30 48.80ZM96.65 48.80Q93.55 48.80 90.90 47.38Q88.25 45.95 86.65 43.25Q85.05 40.55 85.05 36.75Q85.05 33.35 86.17 30.50Q87.30 27.65 89.35 25.55Q91.40 23.45 94.10 22.27Q96.80 21.10 99.90 21.10Q103.05 21.10 105.35 22.20Q107.65 23.30 108.93 25.57Q110.20 27.85 110.20 31.30Q110.20 35 109.33 38.17Q108.45 41.35 106.70 43.73Q104.95 46.10 102.43 47.45Q99.90 48.80 96.65 48.80M99.05 42.35Q101.35 42.35 103.13 41.22Q104.90 40.10 105.93 38.13Q106.95 36.15 106.95 33.50Q106.95 30.75 105.33 29.15Q103.70 27.55 100.80 27.55Q98.55 27.55 96.75 28.67Q94.95 29.80 93.93 31.77Q92.90 33.75 92.90 36.40Q92.90 39.15 94.53 40.75Q96.15 42.35 99.05 42.35M104.35 48.40L105.45 43.05L107.15 35.05L108.20 27.05L111.35 11.30L119.15 11.30L111.75 48.40L104.35 48.40ZM119.00 48.40L126.40 11.30L134.20 11.30L126.80 48.40L119.00 48.40ZM135.90 58.50Q133.85 58.50 131.83 57.85Q129.80 57.20 128.60 56.15L132.20 50.55Q133.05 51.30 134.13 51.75Q135.20 52.20 136.50 52.20Q138.00 52.20 139.13 51.45Q140.25 50.70 141.35 48.90L143.50 45.50L144.20 44.70L158.40 21.50L166.10 21.50L148.20 50.20Q146.20 53.35 144.38 55.17Q142.55 57 140.53 57.75Q138.50 58.50 135.90 58.50M141.85 49.45L135.40 21.50L143.20 21.50L148.10 44L141.85 49.45ZM167.50 48.80Q165.50 48.80 164.20 47.52Q162.90 46.25 162.90 44.30Q162.90 41.95 164.43 40.52Q165.95 39.10 168.10 39.10Q170.10 39.10 171.38 40.35Q172.65 41.60 172.65 43.60Q172.65 45.15 171.93 46.32Q171.20 47.50 170.05 48.15Q168.90 48.80 167.50 48.80ZM189.30 48.80Q186.20 48.80 183.55 47.38Q180.90 45.95 179.30 43.25Q177.70 40.55 177.70 36.75Q177.70 33.35 178.83 30.50Q179.95 27.65 182.00 25.55Q184.05 23.45 186.75 22.27Q189.45 21.10 192.55 21.10Q195.70 21.10 198.00 22.20Q200.30 23.30 201.58 25.57Q202.85 27.85 202.85 31.30Q202.85 35 201.98 38.17Q201.10 41.35 199.35 43.73Q197.60 46.10 195.08 47.45Q192.55 48.80 189.30 48.80M191.70 42.35Q194.00 42.35 195.78 41.22Q197.55 40.10 198.58 38.13Q199.60 36.15 199.60 33.50Q199.60 30.75 197.98 29.15Q196.35 27.55 193.45 27.55Q191.20 27.55 189.40 28.67Q187.60 29.80 186.58 31.77Q185.55 33.75 185.55 36.40Q185.55 39.15 187.18 40.75Q188.80 42.35 191.70 42.35M197.00 48.40L198.10 43.05L199.80 35.05L200.85 27.05L204.00 11.30L211.80 11.30L204.40 48.40L197.00 48.40ZM225.95 48.80Q221.75 48.80 218.68 47.30Q215.60 45.80 213.90 43.10Q212.20 40.40 212.20 36.75Q212.20 32.25 214.23 28.72Q216.25 25.20 219.83 23.15Q223.40 21.10 228.05 21.10Q232.00 21.10 234.85 22.57Q237.70 24.05 239.28 26.67Q240.85 29.30 240.85 32.95Q240.85 34 240.73 35.05Q240.60 36.10 240.40 37.05L218.15 37.05L218.95 32.50L236.75 32.50L233.55 33.90Q233.95 31.65 233.30 30.12Q232.65 28.60 231.20 27.77Q229.75 26.95 227.70 26.95Q225.15 26.95 223.38 28.17Q221.60 29.40 220.70 31.55Q219.80 33.70 219.80 36.40Q219.80 39.50 221.53 41.02Q223.25 42.55 226.75 42.55Q228.80 42.55 230.70 41.90Q232.60 41.25 233.95 40.05L237.20 45.20Q234.85 47.05 231.93 47.92Q229.00 48.80 225.95 48.80ZM250.35 48.40L244.40 21.50L252.10 21.50L257.05 44.65L253.05 44.65L267.30 21.50L275.10 21.50L258.40 48.40L250.35 48.40Z"/></g></g></svg>