<?xml version="1.0" encoding="utf-8"?>
<!-- Generator: Adobe Illustrator 23.0.4, SVG Export Plug-In . SVG Version: 6.00 Build 0)  -->
<svg version="1.1" xmlns="http://www.w3.org/2000/svg" xmlns:xlink="http://www.w3.org/1999/xlink" x="0px" y="0px"
	 viewBox="0 0 623 623" style="enable-background:new 0 0 623 623;" xml:space="preserve">
<style type="text/css">
	.st0{fill:#21242D;}
	.st1{fill:#6C4C42;}
	.st2{fill:#697AC8;}
	.st3{fill:#93C4CE;}
	.st4{fill:#EA507A;}
	.st5{fill:#EDBB98;}
</style>
<g id="레이어_1">
	<rect class="st0" width="623" height="623"/>
</g>
<g id="레이어_1_사본">
	<path class="st1" d="M375.5,125.7c0-4.2,0-8.5,0-12.7c0-3.1,0.4-5.8,4.4-5.8c3.7,0,5.2,2.3,5.2,5.8c0,3.1,0,6.4,0,9.6
		c0,3.1,0,6.4,0,9.8c2.1-0.8,1.2-2.7,2.1-4c1.2-1.7,2.7-3.1,4.8-2.7c2.3,0.4,4,1.9,4.2,4.4c0.4,5.6-1.7,10-6.9,12.1
		c-3.5,1.2-4.4,3.3-4.2,6.7c0.2,1.5,0,2.9-0.2,4.2c-0.6,2.5-2.5,4.4-5,4.2c-2.7-0.2-4.2-2.1-4.2-5c0-3.5-0.2-7.3,0-10.8
		c0.2-3.3-0.8-4.8-4.4-5.8c-6.9-1.7-10.4-11.6-6.9-17.7c1-1.9,2.7-2.9,5-2.5c2.1,0.4,3.3,1.9,3.7,4.2
		C373.7,121.7,372.8,123.8,375.5,125.7z"/>
	<path class="st2" d="M314.4,52.4c0-5.4,0-9.4,0-13.3c0-3.3,0.2-6.9,4.6-6.9c4.8,0,5.2,3.3,5.2,7.1c0,6,0,12.1,0,18.1
		c2.3-0.2,1.5-2.1,2.1-3.1c1-2.5,2.7-4.2,5.4-3.5c3.1,0.6,4.6,3.1,4.2,6.2c-0.4,4.4-2.5,8.5-6.7,9.8c-4.8,1.5-5.4,4.4-5,8.3
		c0.2,1.9,0.2,3.7-1.2,5.2c-1.2,1.2-2.9,2.3-4.8,1.7s-3.3-1.7-3.5-3.5c-0.2-2.3-0.2-4.8-0.2-7.1c0-5,1.2-10-6.4-11.4
		c-5-1-7.3-12.3-4.4-16.8c1.2-1.9,2.9-2.5,5.2-2.3c2.3,0.4,3.3,1.9,3.7,4C312.5,46.6,311.5,48.9,314.4,52.4z"/>
	<path class="st3" d="M110.5,66.6c0-4.4,0-8.7,0-13.1c0-3.5,1.5-5.8,5.2-5.8c3.5,0.2,4.6,2.7,4.6,5.8c0,6.4,0,12.9,0,19.6
		c0.8-0.2,1.5-0.4,1.5-0.6c0.6-3.7,1.9-7.7,6.7-6c4.8,1.7,3.7,5.8,2.7,9.6c-1,3.1-3.1,6-6.2,6.7c-4.4,1-5,3.7-4.6,7.5
		c0,1,0,2.1,0,2.9c-0.2,2.9-2.1,4.4-4.6,4.4c-2.7,0-4.6-1.7-4.8-4.4c-0.2-2.1,0-4.4-0.2-6.7c-0.2-4.8,1.7-10-6.2-11.4
		c-5-1-7.3-13.1-4.2-17.3c1.2-1.7,2.9-2.1,4.8-1.9c2.3,0.2,3.5,1.9,4,4c0.4,2.1,0.4,4.2,0.6,6.4C109.7,66.6,110.1,66.6,110.5,66.6z"
		/>
	<path class="st3" d="M398,20.2c0-4.4,0-8.7,0-13.1c0-3.5,1.5-5.8,5.2-5.8c3.5,0.2,4.6,2.7,4.6,5.8c0,6.4,0,12.9,0,19.6
		c0.8-0.2,1.5-0.4,1.5-0.6c0.6-3.7,1.9-7.7,6.7-6c4.8,1.7,3.7,5.8,2.7,9.6c-1,3.1-3.1,6-6.2,6.7c-4.4,1-5,3.7-4.6,7.5
		c0,1,0,2.1,0,2.9c-0.2,2.9-2.1,4.4-4.6,4.4c-2.7,0-4.6-1.7-4.8-4.4c-0.2-2.1,0-4.4-0.2-6.7c-0.2-4.8,1.7-10-6.2-11.4
		c-5-1-7.3-13.1-4.2-17.3c1.2-1.7,2.9-2.1,4.8-1.9c2.3,0.2,3.5,1.9,4,4c0.4,2.1,0.4,4.2,0.6,6.4C397.2,20.2,397.6,20.2,398,20.2z"/>
	<path class="st1" d="M75.2,120.7c0-4.2,0-8.5,0-12.7c0-3.1,0.4-5.8,4.4-5.8c3.7,0,5.2,2.3,5.2,5.8c0,3.1,0,6.4,0,9.6
		c0,3.1,0,6.4,0,9.8c2.1-0.8,1.2-2.7,2.1-4c1.2-1.7,2.7-3.1,4.8-2.7c2.3,0.4,4,1.9,4.2,4.4c0.4,5.6-1.7,10-6.9,12.1
		c-3.5,1.2-4.4,3.3-4.2,6.7c0.2,1.5,0,2.9-0.2,4.2c-0.6,2.5-2.5,4.4-5,4.2c-2.7-0.2-4.2-2.1-4.2-5c0-3.5-0.2-7.3,0-10.8
		c0.2-3.3-0.8-4.8-4.4-5.8c-6.9-1.7-10.4-11.6-6.9-17.7c1-1.9,2.7-2.9,5-2.5c2.1,0.4,3.3,1.9,3.7,4.2
		C73.1,116.7,72.3,118.8,75.2,120.7z"/>
	<path class="st4" d="M194.2,83.8c0-5,0-9.4,0-13.7c0-3.5,1.5-5.8,5.2-5.8c3.7,0,4.6,2.7,4.6,5.8c0,6.2,0,12.7,0,18.9
		c0.8-0.2,1.5,0,1.5-0.2c0.8-3.3,1.9-7.1,6.4-5.6c5,1.5,4.2,5.6,2.9,9.4c-1,3.1-2.9,6-6.2,6.9c-4.8,1-5.2,4.2-4.8,7.9
		c0.2,3.5-0.4,6.9-4.6,7.1c-4.4,0.2-5.4-3.3-5.2-7.1c0-2.1-0.2-4,0-6c0.4-4.4,0.2-7.5-5.6-8.7c-5.4-1.2-8.3-12.9-5.2-17.7
		c1-1.7,2.7-2.3,4.6-2.1c2.3,0.2,3.3,1.7,4.2,3.7C193.1,78.6,191.7,81.3,194.2,83.8z"/>
	<path class="st4" d="M126.5,253.8c0-5,0-9.4,0-13.7c0-3.5,1.5-5.8,5.2-5.8s4.6,2.7,4.6,5.8c0,6.2,0,12.7,0,18.9
		c0.8-0.2,1.5,0,1.5-0.2c0.8-3.3,1.9-7.1,6.4-5.6c5,1.5,4.2,5.6,2.9,9.4c-1,3.1-2.9,6-6.2,6.9c-4.8,1-5.2,4.2-4.8,7.9
		c0.2,3.5-0.4,6.9-4.6,7.1c-4.4,0.2-5.4-3.3-5.2-7.1c0-2.1-0.2-4,0-6c0.4-4.4,0.2-7.5-5.6-8.7c-5.4-1.2-8.3-12.9-5.2-17.7
		c1-1.7,2.7-2.3,4.6-2.1c2.3,0.2,3.3,1.7,4.2,3.7C125.5,248.6,124,251.3,126.5,253.8z"/>
	<path class="st4" d="M330.8,327.4c0-5,0-9.4,0-13.7c0-3.5,1.5-5.8,5.2-5.8s4.6,2.7,4.6,5.8c0,6.2,0,12.7,0,18.9
		c0.8-0.2,1.5,0,1.5-0.2c0.8-3.3,1.9-7.1,6.4-5.6c5,1.5,4.2,5.6,2.9,9.4c-1,3.1-2.9,6-6.2,6.9c-4.8,1-5.2,4.2-4.8,7.9
		c0.2,3.5-0.4,6.9-4.6,7.1c-4.4,0.2-5.4-3.3-5.2-7.1c0-2.1-0.2-4,0-6c0.4-4.4,0.2-7.5-5.6-8.7c-5.4-1.2-8.3-12.9-5.2-17.7
		c1-1.7,2.7-2.3,4.6-2.1c2.3,0.2,3.3,1.7,4.2,3.7C330,322.2,328.3,324.7,330.8,327.4z"/>
	<path class="st3" d="M486.4,287.3c0-4.4,0-8.7,0-13.1c0-3.5,1.5-5.8,5.2-5.8c3.5,0.2,4.6,2.7,4.6,5.8c0,6.4,0,12.9,0,19.6
		c0.8-0.2,1.5-0.4,1.5-0.6c0.6-3.7,1.9-7.7,6.7-6c4.8,1.7,3.7,5.8,2.7,9.6c-1,3.1-3.1,6-6.2,6.7c-4.4,1-5,3.7-4.6,7.5
		c0,1,0,2.1,0,2.9c-0.2,2.9-2.1,4.4-4.6,4.4c-2.7,0-4.6-1.7-4.8-4.4c-0.2-2.1,0-4.4-0.2-6.7c-0.2-4.8,1.7-10-6.2-11.4
		c-5-1-7.3-13.1-4.2-17.3c1.2-1.7,2.9-2.1,4.8-1.9c2.3,0.2,3.5,1.9,4,4c0.4,2.1,0.4,4.2,0.6,6.4C485.6,287.3,486,287.3,486.4,287.3z
		"/>
	<path class="st2" d="M57.7,202.4c0-5.4,0-9.4,0-13.3c0-3.3,0.2-6.9,4.6-6.9c4.8,0,5.2,3.3,5.2,7.1c0,6,0,12.1,0,18.1
		c2.3-0.2,1.5-2.1,2.1-3.1c1-2.5,2.7-4.2,5.4-3.5c3.1,0.6,4.6,3.1,4.2,6.2c-0.4,4.4-2.5,8.5-6.7,9.8c-4.8,1.5-5.4,4.4-5,8.3
		c0.2,1.9,0.2,3.7-1.2,5.2c-1.2,1.2-2.9,2.3-4.8,1.7c-1.9-0.6-3.3-1.7-3.5-3.5c-0.2-2.3-0.2-4.8-0.2-7.1c0-5,1.2-10-6.4-11.4
		c-5-1-7.3-12.3-4.4-16.8c1.2-1.9,2.9-2.5,5.2-2.3c2.3,0.4,3.3,1.9,3.7,4C56,196.8,55,199.1,57.7,202.4z"/>
	<path class="st3" d="M224.5,206.8c0-4.4,0-8.7,0-13.1c0-3.5,1.5-5.8,5.2-5.8c3.5,0.2,4.6,2.7,4.6,5.8c0,6.4,0,12.9,0,19.6
		c0.8-0.2,1.5-0.4,1.5-0.6c0.6-3.7,1.9-7.7,6.7-6c4.8,1.7,3.7,5.8,2.7,9.6c-1,3.1-3.1,6-6.2,6.7c-4.4,1-5,3.7-4.6,7.5
		c0,1,0,2.1,0,2.9c-0.2,2.9-2.1,4.4-4.6,4.4c-2.7,0-4.6-1.7-4.8-4.4c-0.2-2.1,0-4.4-0.2-6.7c-0.2-4.8,1.7-10-6.2-11.4
		c-5-1-7.3-13.1-4.2-17.3c1.2-1.7,2.9-2.1,4.8-1.9c2.3,0.2,3.5,1.9,4,4s0.4,4.2,0.6,6.4C223.7,206.6,224.1,206.8,224.5,206.8z"/>
	<path class="st4" d="M50,33.9c0-5,0-9.4,0-13.7c0-3.5,1.5-5.8,5.2-5.8c3.7,0,4.6,2.7,4.6,5.8c0,6.2,0,12.7,0,18.9
		c0.8-0.2,1.5,0,1.5-0.2c0.8-3.3,1.9-7.1,6.4-5.6c5,1.5,4.2,5.6,2.9,9.4c-1,3.1-2.9,6-6.2,6.9c-4.8,1-5.2,4.2-4.8,7.9
		c0.2,3.5-0.4,6.9-4.6,7.1c-4.4,0.2-5.4-3.3-5.2-7.1c0-2.1-0.2-4,0-6c0.4-4.4,0.2-7.5-5.6-8.7C38.8,41.4,35.9,29.8,39,25
		c1-1.7,2.7-2.3,4.6-2.1c2.3,0.2,3.3,1.7,4.2,3.7C49,28.7,47.5,31.4,50,33.9z"/>
	<path class="st2" d="M343.5,233.2c0-5.4,0-9.4,0-13.3c0-3.3,0.2-6.9,4.6-6.9c4.8,0,5.2,3.3,5.2,7.1c0,6,0,12.1,0,18.1
		c2.3-0.2,1.5-2.1,2.1-3.1c1-2.5,2.7-4.2,5.4-3.5c3.1,0.6,4.6,3.1,4.2,6.2c-0.4,4.4-2.5,8.5-6.7,9.8c-4.8,1.5-5.4,4.4-5,8.3
		c0.2,1.9,0.2,3.7-1.2,5.2c-1.2,1.2-2.9,2.3-4.8,1.7c-1.9-0.6-3.3-1.7-3.5-3.5c-0.2-2.3-0.2-4.8-0.2-7.1c0-5,1.2-10-6.4-11.4
		c-5-1-7.3-12.3-4.4-16.8c1.2-1.9,2.9-2.5,5.2-2.3c2.3,0.4,3.3,1.9,3.7,4C341.8,227.4,340.8,229.7,343.5,233.2z"/>
	<path class="st5" d="M164.4,163.9c0-4.2,0-8.5,0-12.7c0-3.1,0.4-5.8,4.4-5.8c3.7,0,5.2,2.3,5.2,5.8c0,3.1,0,6.4,0,9.6
		c0,3.1,0,6.4,0,9.8c2.1-0.8,1.2-2.7,2.1-4c1.2-1.7,2.7-3.1,4.8-2.7c2.3,0.4,4,1.9,4.2,4.4c0.4,5.6-1.7,10-6.9,12.1
		c-3.5,1.2-4.4,3.3-4.2,6.7c0.2,1.5,0,2.9-0.2,4.2c-0.6,2.5-2.5,4.4-5,4.2c-2.7-0.2-4.2-2.1-4.2-5c0-3.5-0.2-7.3,0-10.8
		c0.2-3.3-0.8-4.8-4.4-5.8c-6.9-1.7-10.4-11.6-6.9-17.7c1-1.9,2.7-2.9,5-2.5c2.1,0.4,3.3,1.9,3.7,4.2
		C162.5,160.2,161.7,162.3,164.4,163.9z"/>
	<path class="st5" d="M254.1,269.2c0-4.2,0-8.5,0-12.7c0-3.1,0.4-5.8,4.4-5.8c3.7,0,5.2,2.3,5.2,5.8c0,3.1,0,6.4,0,9.6
		c0,3.1,0,6.4,0,9.8c2.1-0.8,1.2-2.7,2.1-4c1.2-1.7,2.7-3.1,4.8-2.7c2.3,0.4,4,1.9,4.2,4.4c0.4,5.6-1.7,10-6.9,12.1
		c-3.5,1.2-4.4,3.3-4.2,6.7c0.2,1.5,0,2.9-0.2,4.2c-0.6,2.5-2.5,4.4-5,4.2c-2.7-0.2-4.2-2.1-4.2-5c0-3.5-0.2-7.3,0-10.8
		c0.2-3.3-0.8-4.8-4.4-5.8c-6.9-1.7-10.4-11.6-6.9-17.7c1-1.9,2.7-2.9,5-2.5c2.1,0.4,3.3,1.9,3.7,4.2
		C252,265.2,251.4,267.3,254.1,269.2z"/>
	<path class="st5" d="M446.3,200.5c0-4.2,0-8.5,0-12.7c0-3.1,0.4-5.8,4.4-5.8c3.7,0,5.2,2.3,5.2,5.8c0,3.1,0,6.4,0,9.6
		c0,3.1,0,6.4,0,9.8c2.1-0.8,1.2-2.7,2.1-4c1.2-1.7,2.7-3.1,4.8-2.7c2.3,0.4,4,1.9,4.2,4.4c0.4,5.6-1.7,10-6.9,12.1
		c-3.5,1.2-4.4,3.3-4.2,6.7c0.2,1.5,0,2.9-0.2,4.2c-0.6,2.5-2.5,4.4-5,4.2c-2.7-0.2-4.2-2.1-4.2-5c0-3.5-0.2-7.3,0-10.8
		c0.2-3.3-0.8-4.8-4.4-5.8c-6.9-1.7-10.4-11.6-6.9-17.7c1-1.9,2.7-2.9,5-2.5c2.1,0.4,3.3,1.9,3.7,4.2
		C444.2,196.6,443.4,198.7,446.3,200.5z"/>
	<path class="st2" d="M417.1,322.2c0-5.4,0-9.4,0-13.3c0-3.3,0.2-6.9,4.6-6.9c4.8,0,5.2,3.3,5.2,7.1c0,6,0,12.1,0,18.1
		c2.3-0.2,1.5-2.1,2.1-3.1c1-2.5,2.7-4.2,5.4-3.5c3.1,0.6,4.6,3.1,4.2,6.2c-0.4,4.4-2.5,8.5-6.7,9.8c-4.8,1.5-5.4,4.4-5,8.3
		c0.2,1.9,0.2,3.7-1.2,5.2c-1.2,1.2-2.9,2.3-4.8,1.7c-1.9-0.6-3.3-1.7-3.5-3.5c-0.2-2.3-0.2-4.8-0.2-7.1c0-5,1.2-10-6.4-11.4
		c-5-1-7.3-12.3-4.4-16.8c1.2-1.9,2.9-2.5,5.2-2.3c2.3,0.4,3.3,1.9,3.7,4C415.5,316.6,414.4,318.9,417.1,322.2z"/>
	<path class="st5" d="M242,25.6c0-4.2,0-8.5,0-12.7c0-3.1,0.4-5.8,4.4-5.8c3.7,0,5.2,2.3,5.2,5.8c0,3.1,0,6.4,0,9.6s0,6.4,0,9.8
		c2.1-0.8,1.2-2.7,2.1-4c1.2-1.7,2.7-3.1,4.8-2.7c2.3,0.4,4,1.9,4.2,4.4c0.4,5.6-1.7,10-6.9,12.1c-3.5,1.2-4.4,3.3-4.2,6.7
		c0.2,1.5,0,2.9-0.2,4.2c-0.6,2.5-2.5,4.4-5,4.2c-2.7-0.2-4.2-2.1-4.2-5c0-3.5-0.2-7.3,0-10.8c0.2-3.3-0.8-4.8-4.4-5.8
		c-6.9-1.7-10.4-11.6-6.9-17.7c1-1.9,2.7-2.9,5-2.5c2.1,0.4,3.3,1.9,3.7,4.2C239.9,21.6,239.1,23.7,242,25.6z"/>
	<path class="st2" d="M182.3,331.8c0-5.4,0-9.4,0-13.3c0-3.3,0.2-6.9,4.6-6.9c4.8,0,5.2,3.3,5.2,7.1c0,6,0,12.1,0,18.1
		c2.3-0.2,1.5-2.1,2.1-3.1c1-2.5,2.7-4.2,5.4-3.5c3.1,0.6,4.6,3.1,4.2,6.2c-0.4,4.4-2.5,8.5-6.7,9.8c-4.8,1.5-5.4,4.4-5,8.3
		c0.2,1.9,0.2,3.7-1.2,5.2c-1.2,1.2-2.9,2.3-4.8,1.7c-1.9-0.6-3.3-1.7-3.5-3.5c-0.2-2.3-0.2-4.8-0.2-7.1c0-5,1.2-10-6.4-11.4
		c-5-1-7.3-12.3-4.4-16.8c1.2-1.9,2.9-2.5,5.2-2.3c2.3,0.4,3.3,1.9,3.7,4C180.4,326.2,179.4,328.5,182.3,331.8z"/>
	<path class="st1" d="M513.2,32.9c0-4.2,0-8.5,0-12.7c0-3.1,0.4-5.8,4.4-5.8c3.7,0,5.2,2.3,5.2,5.8c0,3.1,0,6.4,0,9.6s0,6.4,0,9.8
		c2.1-0.8,1.2-2.7,2.1-4c1.2-1.7,2.7-3.1,4.8-2.7c2.3,0.4,4,1.9,4.2,4.4c0.4,5.6-1.7,10-6.9,12.1c-3.5,1.2-4.4,3.3-4.2,6.7
		c0.2,1.5,0,2.9-0.2,4.2c-0.6,2.5-2.5,4.4-5,4.2c-2.7-0.2-4.2-2.1-4.2-5c0-3.5-0.2-7.3,0-10.8c0.2-3.3-0.8-4.8-4.4-5.8
		C502.2,41,498.7,31,502.2,25c1-1.9,2.7-2.9,5-2.5c2.1,0.4,3.3,1.9,3.7,4.2C511.4,29.1,510.5,31,513.2,32.9z"/>
	<path class="st3" d="M526.8,206.8c0-4.4,0-8.7,0-13.1c0-3.5,1.5-5.8,5.2-5.8c3.5,0.2,4.6,2.7,4.6,5.8c0,6.4,0,12.9,0,19.6
		c0.8-0.2,1.5-0.4,1.5-0.6c0.6-3.7,1.9-7.7,6.7-6c4.8,1.7,3.7,5.8,2.7,9.6c-1,3.1-3.1,6-6.2,6.7c-4.4,1-5,3.7-4.6,7.5
		c0,1,0,2.1,0,2.9c-0.2,2.9-2.1,4.4-4.6,4.4c-2.7,0-4.6-1.7-4.8-4.4c-0.2-2.1,0-4.4-0.2-6.7c-0.2-4.8,1.7-10-6.2-11.4
		c-5-1-7.3-13.1-4.2-17.3c1.2-1.7,2.9-2.1,4.8-1.9c2.3,0.2,3.5,1.9,4,4c0.4,2.1,0.4,4.2,0.6,6.4
		C525.9,206.6,526.4,206.8,526.8,206.8z"/>
	<path class="st2" d="M467.7,102.4c0-5.4,0-9.4,0-13.3c0-3.3,0.2-6.9,4.6-6.9c4.8,0,5.2,3.3,5.2,7.1c0,6,0,12.1,0,18.1
		c2.3-0.2,1.5-2.1,2.1-3.1c1-2.5,2.7-4.2,5.4-3.5c3.1,0.6,4.6,3.1,4.2,6.2c-0.4,4.4-2.5,8.5-6.7,9.8c-4.8,1.5-5.4,4.4-5,8.3
		c0.2,1.9,0.2,3.7-1.2,5.2c-1.2,1.2-2.9,2.3-4.8,1.7c-1.9-0.6-3.3-1.7-3.5-3.5c-0.2-2.3-0.2-4.8-0.2-7.1c0-5,1.2-10-6.4-11.4
		c-5-1-7.3-12.3-4.4-16.8c1.2-1.9,2.9-2.5,5.2-2.3c2.3,0.4,3.3,1.9,3.7,4C466,96.7,465,99,467.7,102.4z"/>
	<path class="st5" d="M292.8,139c0-4.2,0-8.5,0-12.7c0-3.1,0.4-5.8,4.4-5.8c3.7,0,5.2,2.3,5.2,5.8c0,3.1,0,6.4,0,9.6
		c0,3.1,0,6.4,0,9.8c2.1-0.8,1.2-2.7,2.1-4c1.2-1.7,2.7-3.1,4.8-2.7c2.3,0.4,4,1.9,4.2,4.4c0.4,5.6-1.7,10-6.9,12.1
		c-3.5,1.2-4.4,3.3-4.2,6.7c0.2,1.5,0,2.9-0.2,4.2c-0.6,2.5-2.5,4.4-5,4.2c-2.7-0.2-4.2-2.1-4.2-5c0-3.5-0.2-7.3,0-10.8
		c0.2-3.3-0.8-4.8-4.4-5.8c-6.9-1.7-10.4-11.6-6.9-17.7c1-1.9,2.7-2.9,5-2.5c2.1,0.4,3.3,1.9,3.7,4.2C290.9,135,290,137.1,292.8,139
		z"/>
	<path class="st4" d="M560.5,126.7c0-5,0-9.4,0-13.7c0-3.5,1.5-5.8,5.2-5.8s4.6,2.7,4.6,5.8c0,6.2,0,12.7,0,18.9
		c0.8-0.2,1.5,0,1.5-0.2c0.8-3.3,1.9-7.1,6.4-5.6c5,1.5,4.2,5.6,2.9,9.4c-1,3.1-2.9,6-6.2,6.9c-4.8,1-5.2,4.2-4.8,7.9
		c0.2,3.5-0.4,6.9-4.6,7.1c-4.4,0.2-5.4-3.3-5.2-7.1c0-2.1-0.2-4,0-6c0.4-4.4,0.2-7.5-5.6-8.7c-5.4-1.2-8.3-12.9-5.2-17.7
		c1-1.7,2.7-2.3,4.6-2.1c2.3,0.2,3.3,1.7,4.2,3.7C559.4,121.5,558,124,560.5,126.7z"/>
	<path class="st3" d="M33.1,301.6c0-4.4,0-8.7,0-13.1c0-3.5,1.5-5.8,5.2-5.8c3.5,0.2,4.6,2.7,4.6,5.8c0,6.4,0,12.9,0,19.6
		c0.8-0.2,1.5-0.4,1.5-0.6c0.6-3.7,1.9-7.7,6.7-6c4.8,1.7,3.7,5.8,2.7,9.6c-1,3.1-3.1,6-6.2,6.7c-4.4,1-5,3.7-4.6,7.5
		c0,1,0,2.1,0,2.9c-0.2,2.9-2.1,4.4-4.6,4.4c-2.7,0-4.6-1.7-4.8-4.4c-0.2-2.1,0-4.4-0.2-6.7c-0.2-4.8,1.7-10-6.2-11.4
		c-5-1-7.3-13.1-4.2-17.3c1.2-1.7,2.9-2.1,4.8-1.9c2.3,0.2,3.5,1.9,4,4c0.4,2.1,0.4,4.2,0.6,6.4C32.3,301.6,32.7,301.6,33.1,301.6z"
		/>
	<path class="st1" d="M392.8,485.7c0-4.2,0-8.5,0-12.7c0-3.1,0.4-5.8,4.4-5.8c3.7,0,5.2,2.3,5.2,5.8c0,3.1,0,6.4,0,9.6
		c0,3.1,0,6.4,0,9.8c2.1-0.8,1.2-2.7,2.1-4c1.2-1.7,2.7-3.1,4.8-2.7c2.3,0.4,4,1.9,4.2,4.4c0.4,5.6-1.7,10-6.9,12.1
		c-3.5,1.2-4.4,3.3-4.2,6.7c0.2,1.5,0,2.9-0.2,4.2c-0.6,2.5-2.5,4.4-5,4.2c-2.7-0.2-4.2-2.1-4.2-5c0-3.5-0.2-7.3,0-10.8
		c0.2-3.3-0.8-4.8-4.4-5.8c-6.9-1.7-10.4-11.6-6.9-17.7c1-1.9,2.7-2.9,5-2.5c2.1,0.4,3.3,1.9,3.7,4.2
		C390.9,481.8,390.1,483.9,392.8,485.7z"/>
	<path class="st2" d="M331.4,412.5c0-5.4,0-9.4,0-13.3c0-3.3,0.2-6.9,4.6-6.9c4.8,0,5.2,3.3,5.2,7.1c0,6,0,12.1,0,18.1
		c2.3-0.2,1.5-2.1,2.1-3.1c1-2.5,2.7-4.2,5.4-3.5c3.1,0.6,4.6,3.1,4.2,6.2c-0.4,4.4-2.5,8.5-6.7,9.8c-4.8,1.5-5.4,4.4-5,8.3
		c0.2,1.9,0.2,3.7-1.2,5.2c-1.2,1.2-2.9,2.3-4.8,1.7c-1.9-0.6-3.3-1.7-3.5-3.5c-0.2-2.3-0.2-4.8-0.2-7.1c0-5,1.2-10-6.4-11.4
		c-5-1-7.3-12.3-4.4-16.8c1.2-1.9,2.9-2.5,5.2-2.3c2.3,0.4,3.3,1.9,3.7,4C329.8,406.9,328.7,409.2,331.4,412.5z"/>
	<path class="st3" d="M127.8,426.9c0-4.4,0-8.7,0-13.1c0-3.5,1.5-5.8,5.2-5.8c3.5,0.2,4.6,2.7,4.6,5.8c0,6.4,0,12.9,0,19.6
		c0.8-0.2,1.5-0.4,1.5-0.6c0.6-3.7,1.9-7.7,6.7-6c4.8,1.7,3.7,5.8,2.7,9.6c-1,3.1-3.1,6-6.2,6.7c-4.4,1-5,3.7-4.6,7.5
		c0,1,0,2.1,0,2.9c-0.2,2.9-2.1,4.4-4.6,4.4c-2.7,0-4.6-1.7-4.8-4.4c-0.2-2.1,0-4.4-0.2-6.7c-0.2-4.8,1.7-10-6.2-11.4
		c-5-1-7.3-13.1-4.2-17.3c1.2-1.7,2.9-2.1,4.8-1.9c2.3,0.2,3.5,1.9,4,4c0.4,2.1,0.4,4.2,0.6,6.4C127,426.7,127.4,426.9,127.8,426.9z
		"/>
	<path class="st3" d="M451.3,391.1c0-4.4,0-8.7,0-13.1c0-3.5,1.5-5.8,5.2-5.8c3.5,0.2,4.6,2.7,4.6,5.8c0,6.4,0,12.9,0,19.6
		c0.8-0.2,1.5-0.4,1.5-0.6c0.6-3.7,1.9-7.7,6.7-6c4.8,1.7,3.7,5.8,2.7,9.6c-1,3.1-3.1,6-6.2,6.7c-4.4,1-5,3.7-4.6,7.5
		c0,1,0,2.1,0,2.9c-0.2,2.9-2.1,4.4-4.6,4.4c-2.7,0-4.6-1.7-4.8-4.4c-0.2-2.1,0-4.4-0.2-6.7c-0.2-4.8,1.7-10-6.2-11.4
		c-5-1-7.3-13.1-4.2-17.3c1.2-1.7,2.9-2.1,4.8-1.9c2.3,0.2,3.5,1.9,4,4c0.4,2.1,0.4,4.2,0.6,6.4
		C450.4,390.9,450.8,390.9,451.3,391.1z"/>
	<path class="st1" d="M92.4,480.7c0-4.2,0-8.5,0-12.7c0-3.1,0.4-5.8,4.4-5.8c3.7,0,5.2,2.3,5.2,5.8c0,3.1,0,6.4,0,9.6s0,6.4,0,9.8
		c2.1-0.8,1.2-2.7,2.1-4c1.2-1.7,2.7-3.1,4.8-2.7c2.3,0.4,4,1.9,4.2,4.4c0.4,5.6-1.7,10-6.9,12.1c-3.5,1.2-4.4,3.3-4.2,6.7
		c0.2,1.5,0,2.9-0.2,4.2c-0.6,2.5-2.5,4.4-5,4.2c-2.7-0.2-4.2-2.1-4.2-5c0-3.5-0.2-7.3,0-10.8c0.2-3.3-0.8-4.8-4.4-5.8
		c-6.9-1.7-10.4-11.6-6.9-17.7c1-1.9,2.7-2.9,5-2.5c2.1,0.4,3.3,1.9,3.7,4.2C90.4,476.8,89.5,478.9,92.4,480.7z"/>
	<path class="st4" d="M211.4,443.9c0-5,0-9.4,0-13.7c0-3.5,1.5-5.8,5.2-5.8c3.7,0,4.6,2.7,4.6,5.8c0,6.2,0,12.7,0,18.9
		c0.8-0.2,1.5,0,1.5-0.2c0.8-3.3,1.9-7.1,6.4-5.6c5,1.5,4.2,5.6,2.9,9.4c-1,3.1-2.9,6-6.2,6.9c-4.8,1-5.2,4.2-4.8,7.9
		c0.2,3.5-0.4,6.9-4.6,7.1c-4.4,0.2-5.4-3.3-5.2-7.1c0-2.1-0.2-4,0-6c0.4-4.4,0.2-7.5-5.6-8.7c-5.4-1.2-8.3-12.9-5.2-17.7
		c1-1.7,2.7-2.3,4.6-2.1c2.3,0.2,3.3,1.7,4.2,3.7C210.4,438.7,208.9,441.4,211.4,443.9z"/>
	<path class="st2" d="M75,562.5c0-5.4,0-9.4,0-13.3c0-3.3,0.2-6.9,4.6-6.9c4.8,0,5.2,3.3,5.2,7.1c0,6,0,12.1,0,18.1
		c2.3-0.2,1.5-2.1,2.1-3.1c1-2.5,2.7-4.2,5.4-3.5c3.1,0.6,4.6,3.1,4.2,6.2c-0.4,4.4-2.5,8.5-6.7,9.8c-4.8,1.5-5.4,4.4-5,8.3
		c0.2,1.9,0.2,3.7-1.2,5.2c-1.2,1.2-2.9,2.3-4.8,1.7c-1.9-0.6-3.3-1.7-3.5-3.5c-0.2-2.3-0.2-4.8-0.2-7.1c0-5,1.2-10-6.4-11.4
		c-5-1-7.3-12.3-4.4-16.8c1.2-1.9,2.9-2.5,5.2-2.3c2.3,0.4,3.3,1.9,3.7,4C73.3,556.9,72.3,559.2,75,562.5z"/>
	<path class="st3" d="M241.8,566.9c0-4.4,0-8.7,0-13.1c0-3.5,1.5-5.8,5.2-5.8c3.5,0.2,4.6,2.7,4.6,5.8c0,6.4,0,12.9,0,19.6
		c0.8-0.2,1.5-0.4,1.5-0.6c0.6-3.7,1.9-7.7,6.7-6c4.8,1.7,3.7,5.8,2.7,9.6c-1,3.1-3.1,6-6.2,6.7c-4.4,1-5,3.7-4.6,7.5
		c0,1,0,2.1,0,2.9c-0.2,2.9-2.1,4.4-4.6,4.4c-2.7,0-4.6-1.7-4.8-4.4c-0.2-2.1,0-4.4-0.2-6.7c-0.2-4.8,1.7-10-6.2-11.4
		c-5-1-7.3-13.1-4.2-17.3c1.2-1.7,2.9-2.1,4.8-1.9c2.3,0.2,3.5,1.9,4,4c0.4,2.1,0.4,4.2,0.6,6.4C241,566.9,241.4,566.9,241.8,566.9z
		"/>
	<path class="st4" d="M67.3,394c0-5,0-9.4,0-13.7c0-3.5,1.5-5.8,5.2-5.8s4.6,2.7,4.6,5.8c0,6.2,0,12.7,0,18.9c0.8-0.2,1.5,0,1.5-0.2
		c0.8-3.3,1.9-7.1,6.4-5.6c5,1.5,4.2,5.6,2.9,9.4c-1,3.1-2.9,6-6.2,6.9c-4.8,1-5.2,4.2-4.8,7.9c0.2,3.5-0.4,6.9-4.6,7.1
		c-4.4,0.2-5.4-3.3-5.2-7.1c0-2.1-0.2-4,0-6c0.4-4.4,0.2-7.5-5.6-8.7c-5.4-1.2-8.3-12.9-5.2-17.7c1-1.7,2.7-2.3,4.6-2.1
		c2.3,0.2,3.3,1.7,4.2,3.7C66.2,388.8,64.8,391.5,67.3,394z"/>
	<path class="st2" d="M360.8,593.3c0-5.4,0-9.4,0-13.3c0-3.3,0.2-6.9,4.6-6.9c4.8,0,5.2,3.3,5.2,7.1c0,6,0,12.1,0,18.1
		c2.3-0.2,1.5-2.1,2.1-3.1c1-2.5,2.7-4.2,5.4-3.5c3.1,0.6,4.6,3.1,4.2,6.2c-0.4,4.4-2.5,8.5-6.7,9.8c-4.8,1.5-5.4,4.4-5,8.3
		c0.2,1.9,0.2,3.7-1.2,5.2c-1.2,1.2-2.9,2.3-4.8,1.7c-1.9-0.6-3.3-1.7-3.5-3.5c-0.2-2.3-0.2-4.8-0.2-7.1c0-5,1.2-10-6.4-11.4
		c-5-1-7.3-12.3-4.4-16.8c1.2-1.9,2.9-2.5,5.2-2.3c2.3,0.4,3.3,1.9,3.7,4C359.1,587.7,358.1,589.9,360.8,593.3z"/>
	<path class="st5" d="M181.7,524.2c0-4.2,0-8.5,0-12.7c0-3.1,0.4-5.8,4.4-5.8c3.7,0,5.2,2.3,5.2,5.8c0,3.1,0,6.4,0,9.6
		c0,3.1,0,6.4,0,9.8c2.1-0.8,1.2-2.7,2.1-4c1.2-1.7,2.7-3.1,4.8-2.7c2.3,0.4,4,1.9,4.2,4.4c0.4,5.6-1.7,10-6.9,12.1
		c-3.5,1.2-4.4,3.3-4.2,6.7c0.2,1.5,0,2.9-0.2,4.2c-0.6,2.5-2.5,4.4-5,4.2c-2.7-0.2-4.2-2.1-4.2-5c0-3.5-0.2-7.3,0-10.8
		c0.2-3.3-0.8-4.8-4.4-5.8c-6.9-1.7-10.4-11.6-6.9-17.7c1-1.9,2.7-2.9,5-2.5c2.1,0.4,3.3,1.9,3.7,4.2
		C179.8,520.3,179,522.3,181.7,524.2z"/>
	<path class="st5" d="M463.3,560.8c0-4.2,0-8.5,0-12.7c0-3.1,0.4-5.8,4.4-5.8c3.7,0,5.2,2.3,5.2,5.8c0,3.1,0,6.4,0,9.6s0,6.4,0,9.8
		c2.1-0.8,1.2-2.7,2.1-4c1.2-1.7,2.7-3.1,4.8-2.7c2.3,0.4,4,1.9,4.2,4.4c0.4,5.6-1.7,10-6.9,12.1c-3.5,1.2-4.4,3.3-4.2,6.7
		c0.2,1.5,0,2.9-0.2,4.2c-0.6,2.5-2.5,4.4-5,4.2c-2.7-0.2-4.2-2.1-4.2-5c0-3.5-0.2-7.3,0-10.8c0.2-3.3-0.8-4.8-4.4-5.8
		c-6.9-1.7-10.4-11.6-6.9-17.7c1-1.9,2.7-2.9,5-2.5c2.1,0.4,3.3,1.9,3.7,4.2C461.5,556.9,460.6,559,463.3,560.8z"/>
	<path class="st5" d="M259.1,385.7c0-4.2,0-8.5,0-12.7c0-3.1,0.4-5.8,4.4-5.8c3.7,0,5.2,2.3,5.2,5.8c0,3.1,0,6.4,0,9.6s0,6.4,0,9.8
		c2.1-0.8,1.2-2.7,2.1-4c1.2-1.7,2.7-3.1,4.8-2.7c2.3,0.4,4,1.9,4.2,4.4c0.4,5.6-1.7,10-6.9,12.1c-3.5,1.2-4.4,3.3-4.2,6.7
		c0.2,1.5,0,2.9-0.2,4.2c-0.6,2.5-2.5,4.4-5,4.2c-2.7-0.2-4.2-2.1-4.2-5c0-3.5-0.2-7.3,0-10.8c0.2-3.3-0.8-4.8-4.4-5.8
		c-6.9-1.7-10.4-11.6-6.9-17.7c1-1.9,2.7-2.9,5-2.5c2.1,0.4,3.3,1.9,3.7,4.2C257.2,381.7,256.3,383.8,259.1,385.7z"/>
	<path class="st1" d="M544.9,368c0-4.2,0-8.5,0-12.7c0-3.1,0.4-5.8,4.4-5.8c3.7,0,5.2,2.3,5.2,5.8c0,3.1,0,6.4,0,9.6s0,6.4,0,9.8
		c2.1-0.8,1.2-2.7,2.1-4c1.2-1.7,2.7-3.1,4.8-2.7c2.3,0.4,4,1.9,4.2,4.4c0.4,5.6-1.7,10-6.9,12.1c-3.5,1.2-4.4,3.3-4.2,6.7
		c0.2,1.5,0,2.9-0.2,4.2c-0.6,2.5-2.5,4.4-5,4.2c-2.7-0.2-4.2-2.1-4.2-5c0-3.5-0.2-7.3,0-10.8c0.2-3.3-0.8-4.8-4.4-5.8
		c-6.9-1.7-10.4-11.6-6.9-17.7c1-1.9,2.7-2.9,5-2.5c2.1,0.4,3.3,1.9,3.7,4.2C543,364.2,542.2,366.3,544.9,368z"/>
	<path class="st3" d="M544,566.9c0-4.4,0-8.7,0-13.1c0-3.5,1.5-5.8,5.2-5.8c3.5,0.2,4.6,2.7,4.6,5.8c0,6.4,0,12.9,0,19.6
		c0.8-0.2,1.5-0.4,1.5-0.6c0.6-3.7,1.9-7.7,6.7-6c4.8,1.7,3.7,5.8,2.7,9.6c-1,3.1-3.1,6-6.2,6.7c-4.4,1-5,3.7-4.6,7.5
		c0,1,0,2.1,0,2.9c-0.2,2.9-2.1,4.4-4.6,4.4c-2.7,0-4.6-1.7-4.8-4.4c-0.2-2.1,0-4.4-0.2-6.7c-0.2-4.8,1.7-10-6.2-11.4
		c-5-1-7.3-13.1-4.2-17.3c1.2-1.7,2.9-2.1,4.8-1.9c2.3,0.2,3.5,1.9,4,4c0.4,2.1,0.4,4.2,0.6,6.4C543.2,566.9,543.6,566.9,544,566.9z
		"/>
	<path class="st2" d="M485,462.4c0-5.4,0-9.4,0-13.3c0-3.3,0.2-6.9,4.6-6.9c4.8,0,5.2,3.3,5.2,7.1c0,6,0,12.1,0,18.1
		c2.3-0.2,1.5-2.1,2.1-3.1c1-2.5,2.7-4.2,5.4-3.5c3.1,0.6,4.6,3.1,4.2,6.2c-0.4,4.4-2.5,8.5-6.7,9.8c-4.8,1.5-5.4,4.4-5,8.3
		c0.2,1.9,0.2,3.7-1.2,5.2c-1.2,1.2-2.9,2.3-4.8,1.7c-1.9-0.6-3.3-1.7-3.5-3.5c-0.2-2.3-0.2-4.8-0.2-7.1c0-5,1.2-10-6.4-11.4
		c-5-1-7.3-12.3-4.4-16.8c1.2-1.9,2.9-2.5,5.2-2.3c2.3,0.4,3.3,1.9,3.7,4C483.3,456.8,482.3,459.1,485,462.4z"/>
	<path class="st5" d="M310,499.3c0-4.2,0-8.5,0-12.7c0-3.1,0.4-5.8,4.4-5.8c3.7,0,5.2,2.3,5.2,5.8c0,3.1,0,6.4,0,9.6
		c0,3.1,0,6.4,0,9.8c2.1-0.8,1.2-2.7,2.1-4c1.2-1.7,2.7-3.1,4.8-2.7c2.3,0.4,4,1.9,4.2,4.4c0.4,5.6-1.7,10-6.9,12.1
		c-3.5,1.2-4.4,3.3-4.2,6.7c0.2,1.5,0,2.9-0.2,4.2c-0.6,2.5-2.5,4.4-5,4.2c-2.7-0.2-4.2-2.1-4.2-5c0-3.5-0.2-7.3,0-10.8
		c0.2-3.3-0.8-4.8-4.4-5.8c-6.9-1.7-10.4-11.6-6.9-17.7c1-1.9,2.7-2.9,5-2.5c2.1,0.4,3.3,1.9,3.7,4.2
		C308.1,495.3,307.3,497.4,310,499.3z"/>
	<path class="st4" d="M577.7,486.8c0-5,0-9.4,0-13.7c0-3.5,1.5-5.8,5.2-5.8s4.6,2.7,4.6,5.8c0,6.2,0,12.7,0,18.9
		c0.8-0.2,1.5,0,1.5-0.2c0.8-3.3,1.9-7.1,6.4-5.6c5,1.5,4.2,5.6,2.9,9.4c-1,3.1-2.9,6-6.2,6.9c-4.8,1-5.2,4.2-4.8,7.9
		c0.2,3.5-0.4,6.9-4.6,7.1c-4.4,0.2-5.4-3.3-5.2-7.1c0-2.1-0.2-4,0-6c0.4-4.4,0.2-7.5-5.6-8.7c-5.4-1.2-8.3-12.9-5.2-17.7
		c1-1.7,2.7-2.3,4.6-2.1c2.3,0.2,3.3,1.7,4.2,3.7C576.7,481.6,575.2,484.3,577.7,486.8z"/>
</g>
</svg>
