<?xml version="1.0" encoding="utf-8"?>
<!-- Generator: Adobe Illustrator 23.0.4, SVG Export Plug-In . SVG Version: 6.00 Build 0)  -->
<svg version="1.1" xmlns="http://www.w3.org/2000/svg" xmlns:xlink="http://www.w3.org/1999/xlink" x="0px" y="0px"
	 viewBox="0 0 1200 628" style="enable-background:new 0 0 1200 628;" xml:space="preserve">
<style type="text/css">
	.st0{fill:#21242D;}
	.st1{fill:#6C4C42;}
	.st2{fill:#697AC8;}
	.st3{fill:#93C4CE;}
	.st4{fill:#EA507A;}
	.st5{fill:#EDBB98;}
</style>
<g id="레이어_1">
	<rect class="st0" width="1200" height="628"/>
</g>
<g id="레이어_2">
	<path class="st1" d="M387.3,124.1c0-4.2,0-8.5,0-12.7c0-3.1,0.4-5.8,4.4-5.8c3.7,0,5.2,2.3,5.2,5.8c0,3.1,0,6.4,0,9.6
		c0,3.1,0,6.4,0,9.8c2.1-0.8,1.2-2.7,2.1-4c1.2-1.7,2.7-3.1,4.8-2.7c2.3,0.4,4,1.9,4.2,4.4c0.4,5.6-1.7,10-6.9,12.1
		c-3.5,1.2-4.4,3.3-4.2,6.7c0.2,1.5,0,2.9-0.2,4.2c-0.6,2.5-2.5,4.4-5,4.2c-2.7-0.2-4.2-2.1-4.2-5c0-3.5-0.2-7.3,0-10.8
		c0.2-3.3-0.8-4.8-4.4-5.8c-6.9-1.7-10.4-11.6-6.9-17.7c1-1.9,2.7-2.9,5-2.5c2.1,0.4,3.3,1.9,3.7,4.2
		C385.4,120.1,384.5,122.2,387.3,124.1z"/>
	<path class="st2" d="M326.1,50.8c0-5.4,0-9.4,0-13.3c0-3.3,0.2-6.9,4.6-6.9c4.8,0,5.2,3.3,5.2,7.1c0,6,0,12.1,0,18.1
		c2.3-0.2,1.5-2.1,2.1-3.1c1-2.5,2.7-4.2,5.4-3.5c3.1,0.6,4.6,3.1,4.2,6.2c-0.4,4.4-2.5,8.5-6.7,9.8c-4.8,1.5-5.4,4.4-5,8.3
		c0.2,1.9,0.2,3.7-1.2,5.2c-1.2,1.2-2.9,2.3-4.8,1.7c-1.9-0.6-3.3-1.7-3.5-3.5c-0.2-2.3-0.2-4.8-0.2-7.1c0-5,1.2-10-6.4-11.4
		c-5-1-7.3-12.3-4.4-16.8c1.2-1.9,2.9-2.5,5.2-2.3c2.3,0.4,3.3,1.9,3.7,4C324.2,45,323.2,47.3,326.1,50.8z"/>
	<path class="st3" d="M122.2,65c0-4.4,0-8.7,0-13.1c0-3.5,1.5-5.8,5.2-5.8c3.5,0.2,4.6,2.7,4.6,5.8c0,6.4,0,12.9,0,19.6
		c0.8-0.2,1.5-0.4,1.5-0.6c0.6-3.7,1.9-7.7,6.7-6c4.8,1.7,3.7,5.8,2.7,9.6c-1,3.1-3.1,6-6.2,6.7c-4.4,1-5,3.7-4.6,7.5
		c0,1,0,2.1,0,2.9c-0.2,2.9-2.1,4.4-4.6,4.4c-2.7,0-4.6-1.7-4.8-4.4c-0.2-2.1,0-4.4-0.2-6.7c-0.2-4.8,1.7-10-6.2-11.4
		c-5-1-7.3-13.1-4.2-17.3c1.2-1.7,2.9-2.1,4.8-1.9c2.3,0.2,3.5,1.9,4,4c0.4,2.1,0.4,4.2,0.6,6.4C121.4,65,121.8,65,122.2,65z"/>
	<path class="st3" d="M409.7,18.6c0-4.4,0-8.7,0-13.1c0-3.5,1.5-5.8,5.2-5.8c3.5,0.2,4.6,2.7,4.6,5.8c0,6.4,0,12.9,0,19.6
		c0.8-0.2,1.5-0.4,1.5-0.6c0.6-3.7,1.9-7.7,6.7-6c4.8,1.7,3.7,5.8,2.7,9.6c-1,3.1-3.1,6-6.2,6.7c-4.4,1-5,3.7-4.6,7.5
		c0,1,0,2.1,0,2.9c-0.2,2.9-2.1,4.4-4.6,4.4c-2.7,0-4.6-1.7-4.8-4.4c-0.2-2.1,0-4.4-0.2-6.7c-0.2-4.8,1.7-10-6.2-11.4
		c-5-1-7.3-13.1-4.2-17.3c1.2-1.7,2.9-2.1,4.8-1.9c2.3,0.2,3.5,1.9,4,4c0.4,2.1,0.4,4.2,0.6,6.4C408.9,18.6,409.3,18.6,409.7,18.6z"
		/>
	<path class="st1" d="M86.9,119.1c0-4.2,0-8.5,0-12.7c0-3.1,0.4-5.8,4.4-5.8c3.7,0,5.2,2.3,5.2,5.8c0,3.1,0,6.4,0,9.6
		c0,3.1,0,6.4,0,9.8c2.1-0.8,1.2-2.7,2.1-4c1.2-1.7,2.7-3.1,4.8-2.7c2.3,0.4,4,1.9,4.2,4.4c0.4,5.6-1.7,10-6.9,12.1
		c-3.5,1.2-4.4,3.3-4.2,6.7c0.2,1.5,0,2.9-0.2,4.2c-0.6,2.5-2.5,4.4-5,4.2c-2.7-0.2-4.2-2.1-4.2-5c0-3.5-0.2-7.3,0-10.8
		c0.2-3.3-0.8-4.8-4.4-5.8c-6.9-1.7-10.4-11.6-6.9-17.7c1-1.9,2.7-2.9,5-2.5c2.1,0.4,3.3,1.9,3.7,4.2
		C84.8,115.1,84,117.2,86.9,119.1z"/>
	<path class="st4" d="M205.9,82.3c0-5,0-9.4,0-13.7c0-3.5,1.5-5.8,5.2-5.8c3.7,0,4.6,2.7,4.6,5.8c0,6.2,0,12.7,0,18.9
		c0.8-0.2,1.5,0,1.5-0.2c0.8-3.3,1.9-7.1,6.4-5.6c5,1.5,4.2,5.6,2.9,9.4c-1,3.1-2.9,6-6.2,6.9c-4.8,1-5.2,4.2-4.8,7.9
		c0.2,3.5-0.4,6.9-4.6,7.1c-4.4,0.2-5.4-3.3-5.2-7.1c0-2.1-0.2-4,0-6c0.4-4.4,0.2-7.5-5.6-8.7c-5.4-1.2-8.3-12.9-5.2-17.7
		c1-1.7,2.7-2.3,4.6-2.1c2.3,0.2,3.3,1.7,4.2,3.7C204.8,77.1,203.4,79.8,205.9,82.3z"/>
	<path class="st4" d="M138.3,252.2c0-5,0-9.4,0-13.7c0-3.5,1.5-5.8,5.2-5.8s4.6,2.7,4.6,5.8c0,6.2,0,12.7,0,18.9
		c0.8-0.2,1.5,0,1.5-0.2c0.8-3.3,1.9-7.1,6.4-5.6c5,1.5,4.2,5.6,2.9,9.4c-1,3.1-2.9,6-6.2,6.9c-4.8,1-5.2,4.2-4.8,7.9
		c0.2,3.5-0.4,6.9-4.6,7.1c-4.4,0.2-5.4-3.3-5.2-7.1c0-2.1-0.2-4,0-6c0.4-4.4,0.2-7.5-5.6-8.7c-5.4-1.2-8.3-12.9-5.2-17.7
		c1-1.7,2.7-2.3,4.6-2.1c2.3,0.2,3.3,1.7,4.2,3.7C137.2,247,135.8,249.7,138.3,252.2z"/>
	<path class="st4" d="M342.5,325.8c0-5,0-9.4,0-13.7c0-3.5,1.5-5.8,5.2-5.8s4.6,2.7,4.6,5.8c0,6.2,0,12.7,0,18.9
		c0.8-0.2,1.5,0,1.5-0.2c0.8-3.3,1.9-7.1,6.4-5.6c5,1.5,4.2,5.6,2.9,9.4c-1,3.1-2.9,6-6.2,6.9c-4.8,1-5.2,4.2-4.8,7.9
		c0.2,3.5-0.4,6.9-4.6,7.1c-4.4,0.2-5.4-3.3-5.2-7.1c0-2.1-0.2-4,0-6c0.4-4.4,0.2-7.5-5.6-8.7c-5.4-1.2-8.3-12.9-5.2-17.7
		c1-1.7,2.7-2.3,4.6-2.1c2.3,0.2,3.3,1.7,4.2,3.7C341.7,320.6,340,323.1,342.5,325.8z"/>
	<path class="st3" d="M498.1,285.7c0-4.4,0-8.7,0-13.1c0-3.5,1.5-5.8,5.2-5.8c3.5,0.2,4.6,2.7,4.6,5.8c0,6.4,0,12.9,0,19.6
		c0.8-0.2,1.5-0.4,1.5-0.6c0.6-3.7,1.9-7.7,6.7-6c4.8,1.7,3.7,5.8,2.7,9.6c-1,3.1-3.1,6-6.2,6.7c-4.4,1-5,3.7-4.6,7.5
		c0,1,0,2.1,0,2.9c-0.2,2.9-2.1,4.4-4.6,4.4c-2.7,0-4.6-1.7-4.8-4.4c-0.2-2.1,0-4.4-0.2-6.7c-0.2-4.8,1.7-10-6.2-11.4
		c-5-1-7.3-13.1-4.2-17.3c1.2-1.7,2.9-2.1,4.8-1.9c2.3,0.2,3.5,1.9,4,4s0.4,4.2,0.6,6.4C497.3,285.7,497.7,285.7,498.1,285.7z"/>
	<path class="st2" d="M69.4,200.8c0-5.4,0-9.4,0-13.3c0-3.3,0.2-6.9,4.6-6.9c4.8,0,5.2,3.3,5.2,7.1c0,6,0,12.1,0,18.1
		c2.3-0.2,1.5-2.1,2.1-3.1c1-2.5,2.7-4.2,5.4-3.5c3.1,0.6,4.6,3.1,4.2,6.2c-0.4,4.4-2.5,8.5-6.7,9.8c-4.8,1.5-5.4,4.4-5,8.3
		c0.2,1.9,0.2,3.7-1.2,5.2c-1.2,1.2-2.9,2.3-4.8,1.7c-1.9-0.6-3.3-1.7-3.5-3.5c-0.2-2.3-0.2-4.8-0.2-7.1c0-5,1.2-10-6.4-11.4
		c-5-1-7.3-12.3-4.4-16.8c1.2-1.9,2.9-2.5,5.2-2.3c2.3,0.4,3.3,1.9,3.7,4C67.7,195.2,66.7,197.5,69.4,200.8z"/>
	<path class="st3" d="M236.2,205.2c0-4.4,0-8.7,0-13.1c0-3.5,1.5-5.8,5.2-5.8c3.5,0.2,4.6,2.7,4.6,5.8c0,6.4,0,12.9,0,19.6
		c0.8-0.2,1.5-0.4,1.5-0.6c0.6-3.7,1.9-7.7,6.7-6c4.8,1.7,3.7,5.8,2.7,9.6c-1,3.1-3.1,6-6.2,6.7c-4.4,1-5,3.7-4.6,7.5
		c0,1,0,2.1,0,2.9c-0.2,2.9-2.1,4.4-4.6,4.4c-2.7,0-4.6-1.7-4.8-4.4c-0.2-2.1,0-4.4-0.2-6.7c-0.2-4.8,1.7-10-6.2-11.4
		c-5-1-7.3-13.1-4.2-17.3c1.2-1.7,2.9-2.1,4.8-1.9c2.3,0.2,3.5,1.9,4,4c0.4,2.1,0.4,4.2,0.6,6.4C235.4,205,235.8,205.2,236.2,205.2z
		"/>
	<path class="st4" d="M61.7,32.3c0-5,0-9.4,0-13.7c0-3.5,1.5-5.8,5.2-5.8c3.7,0,4.6,2.7,4.6,5.8c0,6.2,0,12.7,0,18.9
		c0.8-0.2,1.5,0,1.5-0.2c0.8-3.3,1.9-7.1,6.4-5.6c5,1.5,4.2,5.6,2.9,9.4c-1,3.1-2.9,6-6.2,6.9c-4.8,1-5.2,4.2-4.8,7.9
		c0.2,3.5-0.4,6.9-4.6,7.1c-4.4,0.2-5.4-3.3-5.2-7.1c0-2.1-0.2-4,0-6c0.4-4.4,0.2-7.5-5.6-8.7c-5.4-1.2-8.3-12.9-5.2-17.7
		c1-1.7,2.7-2.3,4.6-2.1c2.3,0.2,3.3,1.7,4.2,3.7C60.7,27.1,59.2,29.8,61.7,32.3z"/>
	<path class="st2" d="M355.2,231.6c0-5.4,0-9.4,0-13.3c0-3.3,0.2-6.9,4.6-6.9c4.8,0,5.2,3.3,5.2,7.1c0,6,0,12.1,0,18.1
		c2.3-0.2,1.5-2.1,2.1-3.1c1-2.5,2.7-4.2,5.4-3.5c3.1,0.6,4.6,3.1,4.2,6.2c-0.4,4.4-2.5,8.5-6.7,9.8c-4.8,1.5-5.4,4.4-5,8.3
		c0.2,1.9,0.2,3.7-1.2,5.2c-1.2,1.2-2.9,2.3-4.8,1.7c-1.9-0.6-3.3-1.7-3.5-3.5c-0.2-2.3-0.2-4.8-0.2-7.1c0-5,1.2-10-6.4-11.4
		c-5-1-7.3-12.3-4.4-16.8c1.2-1.9,2.9-2.5,5.2-2.3c2.3,0.4,3.3,1.9,3.7,4C353.6,225.8,352.5,228.1,355.2,231.6z"/>
	<path class="st5" d="M176.1,162.3c0-4.2,0-8.5,0-12.7c0-3.1,0.4-5.8,4.4-5.8c3.7,0,5.2,2.3,5.2,5.8c0,3.1,0,6.4,0,9.6
		c0,3.1,0,6.4,0,9.8c2.1-0.8,1.2-2.7,2.1-4c1.2-1.7,2.7-3.1,4.8-2.7c2.3,0.4,4,1.9,4.2,4.4c0.4,5.6-1.7,10-6.9,12.1
		c-3.5,1.2-4.4,3.3-4.2,6.7c0.2,1.5,0,2.9-0.2,4.2c-0.6,2.5-2.5,4.4-5,4.2c-2.7-0.2-4.2-2.1-4.2-5c0-3.5-0.2-7.3,0-10.8
		c0.2-3.3-0.8-4.8-4.4-5.8c-6.9-1.7-10.4-11.6-6.9-17.7c1-1.9,2.7-2.9,5-2.5c2.1,0.4,3.3,1.9,3.7,4.2
		C174.2,158.6,173.4,160.7,176.1,162.3z"/>
	<path class="st5" d="M265.8,267.6c0-4.2,0-8.5,0-12.7c0-3.1,0.4-5.8,4.4-5.8c3.7,0,5.2,2.3,5.2,5.8c0,3.1,0,6.4,0,9.6s0,6.4,0,9.8
		c2.1-0.8,1.2-2.7,2.1-4c1.2-1.7,2.7-3.1,4.8-2.7c2.3,0.4,4,1.9,4.2,4.4c0.4,5.6-1.7,10-6.9,12.1c-3.5,1.2-4.4,3.3-4.2,6.7
		c0.2,1.5,0,2.9-0.2,4.2c-0.6,2.5-2.5,4.4-5,4.2c-2.7-0.2-4.2-2.1-4.2-5c0-3.5-0.2-7.3,0-10.8c0.2-3.3-0.8-4.8-4.4-5.8
		c-6.9-1.7-10.4-11.6-6.9-17.7c1-1.9,2.7-2.9,5-2.5c2.1,0.4,3.3,1.9,3.7,4.2C263.7,263.6,263.1,265.7,265.8,267.6z"/>
	<path class="st5" d="M458,199c0-4.2,0-8.5,0-12.7c0-3.1,0.4-5.8,4.4-5.8c3.7,0,5.2,2.3,5.2,5.8c0,3.1,0,6.4,0,9.6
		c0,3.1,0,6.4,0,9.8c2.1-0.8,1.2-2.7,2.1-4c1.2-1.7,2.7-3.1,4.8-2.7c2.3,0.4,4,1.9,4.2,4.4c0.4,5.6-1.7,10-6.9,12.1
		c-3.5,1.2-4.4,3.3-4.2,6.7c0.2,1.5,0,2.9-0.2,4.2c-0.6,2.5-2.5,4.4-5,4.2c-2.7-0.2-4.2-2.1-4.2-5c0-3.5-0.2-7.3,0-10.8
		c0.2-3.3-0.8-4.8-4.4-5.8c-6.9-1.7-10.4-11.6-6.9-17.7c1-1.9,2.7-2.9,5-2.5c2.1,0.4,3.3,1.9,3.7,4.2C455.9,195,455.1,197.1,458,199
		z"/>
	<path class="st2" d="M428.9,320.6c0-5.4,0-9.4,0-13.3c0-3.3,0.2-6.9,4.6-6.9c4.8,0,5.2,3.3,5.2,7.1c0,6,0,12.1,0,18.1
		c2.3-0.2,1.5-2.1,2.1-3.1c1-2.5,2.7-4.2,5.4-3.5c3.1,0.6,4.6,3.1,4.2,6.2c-0.4,4.4-2.5,8.5-6.7,9.8c-4.8,1.5-5.4,4.4-5,8.3
		c0.2,1.9,0.2,3.7-1.2,5.2c-1.2,1.2-2.9,2.3-4.8,1.7c-1.9-0.6-3.3-1.7-3.5-3.5c-0.2-2.3-0.2-4.8-0.2-7.1c0-5,1.2-10-6.4-11.4
		c-5-1-7.3-12.3-4.4-16.8c1.2-1.9,2.9-2.5,5.2-2.3c2.3,0.4,3.3,1.9,3.7,4C427.2,315,426.1,317.3,428.9,320.6z"/>
	<path class="st5" d="M253.7,24c0-4.2,0-8.5,0-12.7c0-3.1,0.4-5.8,4.4-5.8c3.7,0,5.2,2.3,5.2,5.8c0,3.1,0,6.4,0,9.6s0,6.4,0,9.8
		c2.1-0.8,1.2-2.7,2.1-4c1.2-1.7,2.7-3.1,4.8-2.7c2.3,0.4,4,1.9,4.2,4.4c0.4,5.6-1.7,10-6.9,12.1c-3.5,1.2-4.4,3.3-4.2,6.7
		c0.2,1.5,0,2.9-0.2,4.2c-0.6,2.5-2.5,4.4-5,4.2c-2.7-0.2-4.2-2.1-4.2-5c0-3.5-0.2-7.3,0-10.8c0.2-3.3-0.8-4.8-4.4-5.8
		c-6.9-1.7-10.4-11.6-6.9-17.7c1-1.9,2.7-2.9,5-2.5c2.1,0.4,3.3,1.9,3.7,4.2C251.6,20.1,250.8,22.1,253.7,24z"/>
	<path class="st2" d="M194,330.2c0-5.4,0-9.4,0-13.3c0-3.3,0.2-6.9,4.6-6.9c4.8,0,5.2,3.3,5.2,7.1c0,6,0,12.1,0,18.1
		c2.3-0.2,1.5-2.1,2.1-3.1c1-2.5,2.7-4.2,5.4-3.5c3.1,0.6,4.6,3.1,4.2,6.2c-0.4,4.4-2.5,8.5-6.7,9.8c-4.8,1.5-5.4,4.4-5,8.3
		c0.2,1.9,0.2,3.7-1.2,5.2c-1.2,1.2-2.9,2.3-4.8,1.7c-1.9-0.6-3.3-1.7-3.5-3.5c-0.2-2.3-0.2-4.8-0.2-7.1c0-5,1.2-10-6.4-11.4
		c-5-1-7.3-12.3-4.4-16.8c1.2-1.9,2.9-2.5,5.2-2.3c2.3,0.4,3.3,1.9,3.7,4C192.1,324.6,191.1,326.9,194,330.2z"/>
	<path class="st1" d="M525,31.3c0-4.2,0-8.5,0-12.7c0-3.1,0.4-5.8,4.4-5.8c3.7,0,5.2,2.3,5.2,5.8c0,3.1,0,6.4,0,9.6s0,6.4,0,9.8
		c2.1-0.8,1.2-2.7,2.1-4c1.2-1.7,2.7-3.1,4.8-2.7c2.3,0.4,4,1.9,4.2,4.4c0.4,5.6-1.7,10-6.9,12.1c-3.5,1.2-4.4,3.3-4.2,6.7
		c0.2,1.5,0,2.9-0.2,4.2c-0.6,2.5-2.5,4.4-5,4.2c-2.7-0.2-4.2-2.1-4.2-5c0-3.5-0.2-7.3,0-10.8c0.2-3.3-0.8-4.8-4.4-5.8
		c-6.9-1.7-10.4-11.6-6.9-17.7c1-1.9,2.7-2.9,5-2.5c2.1,0.4,3.3,1.9,3.7,4.2C523.1,27.5,522.3,29.4,525,31.3z"/>
	<path class="st3" d="M538.5,205.2c0-4.4,0-8.7,0-13.1c0-3.5,1.5-5.8,5.2-5.8c3.5,0.2,4.6,2.7,4.6,5.8c0,6.4,0,12.9,0,19.6
		c0.8-0.2,1.5-0.4,1.5-0.6c0.6-3.7,1.9-7.7,6.7-6c4.8,1.7,3.7,5.8,2.7,9.6c-1,3.1-3.1,6-6.2,6.7c-4.4,1-5,3.7-4.6,7.5
		c0,1,0,2.1,0,2.9c-0.2,2.9-2.1,4.4-4.6,4.4c-2.7,0-4.6-1.7-4.8-4.4c-0.2-2.1,0-4.4-0.2-6.7c-0.2-4.8,1.7-10-6.2-11.4
		c-5-1-7.3-13.1-4.2-17.3c1.2-1.7,2.9-2.1,4.8-1.9c2.3,0.2,3.5,1.9,4,4s0.4,4.2,0.6,6.4C537.6,205,538.1,205.2,538.5,205.2z"/>
	<path class="st2" d="M479.4,100.8c0-5.4,0-9.4,0-13.3c0-3.3,0.2-6.9,4.6-6.9c4.8,0,5.2,3.3,5.2,7.1c0,6,0,12.1,0,18.1
		c2.3-0.2,1.5-2.1,2.1-3.1c1-2.5,2.7-4.2,5.4-3.5c3.1,0.6,4.6,3.1,4.2,6.2c-0.4,4.4-2.5,8.5-6.7,9.8c-4.8,1.5-5.4,4.4-5,8.3
		c0.2,1.9,0.2,3.7-1.2,5.2c-1.2,1.2-2.9,2.3-4.8,1.7c-1.9-0.6-3.3-1.7-3.5-3.5c-0.2-2.3-0.2-4.8-0.2-7.1c0-5,1.2-10-6.4-11.4
		c-5-1-7.3-12.3-4.4-16.8c1.2-1.9,2.9-2.5,5.2-2.3c2.3,0.4,3.3,1.9,3.7,4C477.7,95.2,476.7,97.4,479.4,100.8z"/>
	<path class="st5" d="M304.5,137.4c0-4.2,0-8.5,0-12.7c0-3.1,0.4-5.8,4.4-5.8c3.7,0,5.2,2.3,5.2,5.8c0,3.1,0,6.4,0,9.6
		c0,3.1,0,6.4,0,9.8c2.1-0.8,1.2-2.7,2.1-4c1.2-1.7,2.7-3.1,4.8-2.7c2.3,0.4,4,1.9,4.2,4.4c0.4,5.6-1.7,10-6.9,12.1
		c-3.5,1.2-4.4,3.3-4.2,6.7c0.2,1.5,0,2.9-0.2,4.2c-0.6,2.5-2.5,4.4-5,4.2c-2.7-0.2-4.2-2.1-4.2-5c0-3.5-0.2-7.3,0-10.8
		c0.2-3.3-0.8-4.8-4.4-5.8c-6.9-1.7-10.4-11.6-6.9-17.7c1-1.9,2.7-2.9,5-2.5c2.1,0.4,3.3,1.9,3.7,4.2
		C302.6,133.4,301.8,135.5,304.5,137.4z"/>
	<path class="st4" d="M572.2,125.1c0-5,0-9.4,0-13.7c0-3.5,1.5-5.8,5.2-5.8s4.6,2.7,4.6,5.8c0,6.2,0,12.7,0,18.9
		c0.8-0.2,1.5,0,1.5-0.2c0.8-3.3,1.9-7.1,6.4-5.6c5,1.5,4.2,5.6,2.9,9.4c-1,3.1-2.9,6-6.2,6.9c-4.8,1-5.2,4.2-4.8,7.9
		c0.2,3.5-0.4,6.9-4.6,7.1c-4.4,0.2-5.4-3.3-5.2-7.1c0-2.1-0.2-4,0-6c0.4-4.4,0.2-7.5-5.6-8.7c-5.4-1.2-8.3-12.9-5.2-17.7
		c1-1.7,2.7-2.3,4.6-2.1c2.3,0.2,3.3,1.7,4.2,3.7C571.1,119.9,569.7,122.4,572.2,125.1z"/>
	<path class="st3" d="M44.9,300c0-4.4,0-8.7,0-13.1c0-3.5,1.5-5.8,5.2-5.8c3.5,0.2,4.6,2.7,4.6,5.8c0,6.4,0,12.9,0,19.6
		c0.8-0.2,1.5-0.4,1.5-0.6c0.6-3.7,1.9-7.7,6.7-6c4.8,1.7,3.7,5.8,2.7,9.6c-1,3.1-3.1,6-6.2,6.7c-4.4,1-5,3.7-4.6,7.5
		c0,1,0,2.1,0,2.9c-0.2,2.9-2.1,4.4-4.6,4.4c-2.7,0-4.6-1.7-4.8-4.4c-0.2-2.1,0-4.4-0.2-6.7c-0.2-4.8,1.7-10-6.2-11.4
		c-5-1-7.3-13.1-4.2-17.3c1.2-1.7,2.9-2.1,4.8-1.9c2.3,0.2,3.5,1.9,4,4c0.4,2.1,0.4,4.2,0.6,6.4C44,300,44.4,300,44.9,300z"/>
	<path class="st1" d="M404.5,484.1c0-4.2,0-8.5,0-12.7c0-3.1,0.4-5.8,4.4-5.8c3.7,0,5.2,2.3,5.2,5.8c0,3.1,0,6.4,0,9.6s0,6.4,0,9.8
		c2.1-0.8,1.2-2.7,2.1-4c1.2-1.7,2.7-3.1,4.8-2.7c2.3,0.4,4,1.9,4.2,4.4c0.4,5.6-1.7,10-6.9,12.1c-3.5,1.2-4.4,3.3-4.2,6.7
		c0.2,1.5,0,2.9-0.2,4.2c-0.6,2.5-2.5,4.4-5,4.2c-2.7-0.2-4.2-2.1-4.2-5c0-3.5-0.2-7.3,0-10.8c0.2-3.3-0.8-4.8-4.4-5.8
		c-6.9-1.7-10.4-11.6-6.9-17.7c1-1.9,2.7-2.9,5-2.5c2.1,0.4,3.3,1.9,3.7,4.2C402.6,480.2,401.8,482.3,404.5,484.1z"/>
	<path class="st2" d="M343.2,410.9c0-5.4,0-9.4,0-13.3c0-3.3,0.2-6.9,4.6-6.9c4.8,0,5.2,3.3,5.2,7.1c0,6,0,12.1,0,18.1
		c2.3-0.2,1.5-2.1,2.1-3.1c1-2.5,2.7-4.2,5.4-3.5c3.1,0.6,4.6,3.1,4.2,6.2c-0.4,4.4-2.5,8.5-6.7,9.8c-4.8,1.5-5.4,4.4-5,8.3
		c0.2,1.9,0.2,3.7-1.2,5.2c-1.2,1.2-2.9,2.3-4.8,1.7c-1.9-0.6-3.3-1.7-3.5-3.5c-0.2-2.3-0.2-4.8-0.2-7.1c0-5,1.2-10-6.4-11.4
		c-5-1-7.3-12.3-4.4-16.8c1.2-1.9,2.9-2.5,5.2-2.3c2.3,0.4,3.3,1.9,3.7,4C341.5,405.3,340.4,407.6,343.2,410.9z"/>
	<path class="st3" d="M139.5,425.3c0-4.4,0-8.7,0-13.1c0-3.5,1.5-5.8,5.2-5.8c3.5,0.2,4.6,2.7,4.6,5.8c0,6.4,0,12.9,0,19.6
		c0.8-0.2,1.5-0.4,1.5-0.6c0.6-3.7,1.9-7.7,6.7-6c4.8,1.7,3.7,5.8,2.7,9.6c-1,3.1-3.1,6-6.2,6.7c-4.4,1-5,3.7-4.6,7.5
		c0,1,0,2.1,0,2.9c-0.2,2.9-2.1,4.4-4.6,4.4c-2.7,0-4.6-1.7-4.8-4.4c-0.2-2.1,0-4.4-0.2-6.7c-0.2-4.8,1.7-10-6.2-11.4
		c-5-1-7.3-13.1-4.2-17.3c1.2-1.7,2.9-2.1,4.8-1.9c2.3,0.2,3.5,1.9,4,4c0.4,2.1,0.4,4.2,0.6,6.4
		C138.7,425.1,139.1,425.3,139.5,425.3z"/>
	<path class="st3" d="M463,389.5c0-4.4,0-8.7,0-13.1c0-3.5,1.5-5.8,5.2-5.8c3.5,0.2,4.6,2.7,4.6,5.8c0,6.4,0,12.9,0,19.6
		c0.8-0.2,1.5-0.4,1.5-0.6c0.6-3.7,1.9-7.7,6.7-6c4.8,1.7,3.7,5.8,2.7,9.6c-1,3.1-3.1,6-6.2,6.7c-4.4,1-5,3.7-4.6,7.5
		c0,1,0,2.1,0,2.9c-0.2,2.9-2.1,4.4-4.6,4.4c-2.7,0-4.6-1.7-4.8-4.4c-0.2-2.1,0-4.4-0.2-6.7c-0.2-4.8,1.7-10-6.2-11.4
		c-5-1-7.3-13.1-4.2-17.3c1.2-1.7,2.9-2.1,4.8-1.9c2.3,0.2,3.5,1.9,4,4c0.4,2.1,0.4,4.2,0.6,6.4C462.1,389.3,462.6,389.3,463,389.5z
		"/>
	<path class="st1" d="M104.1,479.1c0-4.2,0-8.5,0-12.7c0-3.1,0.4-5.8,4.4-5.8c3.7,0,5.2,2.3,5.2,5.8c0,3.1,0,6.4,0,9.6
		c0,3.1,0,6.4,0,9.8c2.1-0.8,1.2-2.7,2.1-4c1.2-1.7,2.7-3.1,4.8-2.7c2.3,0.4,4,1.9,4.2,4.4c0.4,5.6-1.7,10-6.9,12.1
		c-3.5,1.2-4.4,3.3-4.2,6.7c0.2,1.5,0,2.9-0.2,4.2c-0.6,2.5-2.5,4.4-5,4.2c-2.7-0.2-4.2-2.1-4.2-5c0-3.5-0.2-7.3,0-10.8
		c0.2-3.3-0.8-4.8-4.4-5.8c-6.9-1.7-10.4-11.6-6.9-17.7c1-1.9,2.7-2.9,5-2.5c2.1,0.4,3.3,1.9,3.7,4.2
		C102.1,475.2,101.2,477.3,104.1,479.1z"/>
	<path class="st4" d="M223.1,442.3c0-5,0-9.4,0-13.7c0-3.5,1.5-5.8,5.2-5.8s4.6,2.7,4.6,5.8c0,6.2,0,12.7,0,18.9
		c0.8-0.2,1.5,0,1.5-0.2c0.8-3.3,1.9-7.1,6.4-5.6c5,1.5,4.2,5.6,2.9,9.4c-1,3.1-2.9,6-6.2,6.9c-4.8,1-5.2,4.2-4.8,7.9
		c0.2,3.5-0.4,6.9-4.6,7.1c-4.4,0.2-5.4-3.3-5.2-7.1c0-2.1-0.2-4,0-6c0.4-4.4,0.2-7.5-5.6-8.7c-5.4-1.2-8.3-12.9-5.2-17.7
		c1-1.7,2.7-2.3,4.6-2.1c2.3,0.2,3.3,1.7,4.2,3.7C222.1,437.1,220.6,439.8,223.1,442.3z"/>
	<path class="st2" d="M86.7,560.9c0-5.4,0-9.4,0-13.3c0-3.3,0.2-6.9,4.6-6.9c4.8,0,5.2,3.3,5.2,7.1c0,6,0,12.1,0,18.1
		c2.3-0.2,1.5-2.1,2.1-3.1c1-2.5,2.7-4.2,5.4-3.5c3.1,0.6,4.6,3.1,4.2,6.2c-0.4,4.4-2.5,8.5-6.7,9.8c-4.8,1.5-5.4,4.4-5,8.3
		c0.2,1.9,0.2,3.7-1.2,5.2c-1.2,1.2-2.9,2.3-4.8,1.7c-1.9-0.6-3.3-1.7-3.5-3.5c-0.2-2.3-0.2-4.8-0.2-7.1c0-5,1.2-10-6.4-11.4
		c-5-1-7.3-12.3-4.4-16.8c1.2-1.9,2.9-2.5,5.2-2.3c2.3,0.4,3.3,1.9,3.7,4C85,555.3,84,557.6,86.7,560.9z"/>
	<path class="st3" d="M253.5,565.3c0-4.4,0-8.7,0-13.1c0-3.5,1.5-5.8,5.2-5.8c3.5,0.2,4.6,2.7,4.6,5.8c0,6.4,0,12.9,0,19.6
		c0.8-0.2,1.5-0.4,1.5-0.6c0.6-3.7,1.9-7.7,6.7-6c4.8,1.7,3.7,5.8,2.7,9.6c-1,3.1-3.1,6-6.2,6.7c-4.4,1-5,3.7-4.6,7.5
		c0,1,0,2.1,0,2.9c-0.2,2.9-2.1,4.4-4.6,4.4c-2.7,0-4.6-1.7-4.8-4.4c-0.2-2.1,0-4.4-0.2-6.7c-0.2-4.8,1.7-10-6.2-11.4
		c-5-1-7.3-13.1-4.2-17.3c1.2-1.7,2.9-2.1,4.8-1.9c2.3,0.2,3.5,1.9,4,4c0.4,2.1,0.4,4.2,0.6,6.4
		C252.7,565.3,253.1,565.3,253.5,565.3z"/>
	<path class="st4" d="M79,392.4c0-5,0-9.4,0-13.7c0-3.5,1.5-5.8,5.2-5.8s4.6,2.7,4.6,5.8c0,6.2,0,12.7,0,18.9c0.8-0.2,1.5,0,1.5-0.2
		c0.8-3.3,1.9-7.1,6.4-5.6c5,1.5,4.2,5.6,2.9,9.4c-1,3.1-2.9,6-6.2,6.9c-4.8,1-5.2,4.2-4.8,7.9c0.2,3.5-0.4,6.9-4.6,7.1
		c-4.4,0.2-5.4-3.3-5.2-7.1c0-2.1-0.2-4,0-6c0.4-4.4,0.2-7.5-5.6-8.7c-5.4-1.2-8.3-12.9-5.2-17.7c1-1.7,2.7-2.3,4.6-2.1
		c2.3,0.2,3.3,1.7,4.2,3.7C77.9,387.2,76.5,389.9,79,392.4z"/>
	<path class="st2" d="M372.5,591.7c0-5.4,0-9.4,0-13.3c0-3.3,0.2-6.9,4.6-6.9c4.8,0,5.2,3.3,5.2,7.1c0,6,0,12.1,0,18.1
		c2.3-0.2,1.5-2.1,2.1-3.1c1-2.5,2.7-4.2,5.4-3.5c3.1,0.6,4.6,3.1,4.2,6.2c-0.4,4.4-2.5,8.5-6.7,9.8c-4.8,1.5-5.4,4.4-5,8.3
		c0.2,1.9,0.2,3.7-1.2,5.2c-1.2,1.2-2.9,2.3-4.8,1.7c-1.9-0.6-3.3-1.7-3.5-3.5c-0.2-2.3-0.2-4.8-0.2-7.1c0-5,1.2-10-6.4-11.4
		c-5-1-7.3-12.3-4.4-16.8c1.2-1.9,2.9-2.5,5.2-2.3c2.3,0.4,3.3,1.9,3.7,4C370.8,586.1,369.8,588.4,372.5,591.7z"/>
	<path class="st5" d="M193.4,522.6c0-4.2,0-8.5,0-12.7c0-3.1,0.4-5.8,4.4-5.8c3.7,0,5.2,2.3,5.2,5.8c0,3.1,0,6.4,0,9.6s0,6.4,0,9.8
		c2.1-0.8,1.2-2.7,2.1-4c1.2-1.7,2.7-3.1,4.8-2.7c2.3,0.4,4,1.9,4.2,4.4c0.4,5.6-1.7,10-6.9,12.1c-3.5,1.2-4.4,3.3-4.2,6.7
		c0.2,1.5,0,2.9-0.2,4.2c-0.6,2.5-2.5,4.4-5,4.2c-2.7-0.2-4.2-2.1-4.2-5c0-3.5-0.2-7.3,0-10.8c0.2-3.3-0.8-4.8-4.4-5.8
		c-6.9-1.7-10.4-11.6-6.9-17.7c1-1.9,2.7-2.9,5-2.5c2.1,0.4,3.3,1.9,3.7,4.2C191.5,518.7,190.7,520.8,193.4,522.6z"/>
	<path class="st5" d="M475,559.2c0-4.2,0-8.5,0-12.7c0-3.1,0.4-5.8,4.4-5.8c3.7,0,5.2,2.3,5.2,5.8c0,3.1,0,6.4,0,9.6
		c0,3.1,0,6.4,0,9.8c2.1-0.8,1.2-2.7,2.1-4c1.2-1.7,2.7-3.1,4.8-2.7c2.3,0.4,4,1.9,4.2,4.4c0.4,5.6-1.7,10-6.9,12.1
		c-3.5,1.2-4.4,3.3-4.2,6.7c0.2,1.5,0,2.9-0.2,4.2c-0.6,2.5-2.5,4.4-5,4.2c-2.7-0.2-4.2-2.1-4.2-5c0-3.5-0.2-7.3,0-10.8
		c0.2-3.3-0.8-4.8-4.4-5.8c-6.9-1.7-10.4-11.6-6.9-17.7c1-1.9,2.7-2.9,5-2.5c2.1,0.4,3.3,1.9,3.7,4.2
		C473.2,555.3,472.3,557.4,475,559.2z"/>
	<path class="st5" d="M270.8,384.1c0-4.2,0-8.5,0-12.7c0-3.1,0.4-5.8,4.4-5.8c3.7,0,5.2,2.3,5.2,5.8c0,3.1,0,6.4,0,9.6s0,6.4,0,9.8
		c2.1-0.8,1.2-2.7,2.1-4c1.2-1.7,2.7-3.1,4.8-2.7c2.3,0.4,4,1.9,4.2,4.4c0.4,5.6-1.7,10-6.9,12.1c-3.5,1.2-4.4,3.3-4.2,6.7
		c0.2,1.5,0,2.9-0.2,4.2c-0.6,2.5-2.5,4.4-5,4.2c-2.7-0.2-4.2-2.1-4.2-5c0-3.5-0.2-7.3,0-10.8c0.2-3.3-0.8-4.8-4.4-5.8
		c-6.9-1.7-10.4-11.6-6.9-17.7c1-1.9,2.7-2.9,5-2.5c2.1,0.4,3.3,1.9,3.7,4.2C268.9,380.1,268.1,382.2,270.8,384.1z"/>
	<path class="st1" d="M556.6,366.4c0-4.2,0-8.5,0-12.7c0-3.1,0.4-5.8,4.4-5.8c3.7,0,5.2,2.3,5.2,5.8c0,3.1,0,6.4,0,9.6
		c0,3.1,0,6.4,0,9.8c2.1-0.8,1.2-2.7,2.1-4c1.2-1.7,2.7-3.1,4.8-2.7c2.3,0.4,4,1.9,4.2,4.4c0.4,5.6-1.7,10-6.9,12.1
		c-3.5,1.2-4.4,3.3-4.2,6.7c0.2,1.5,0,2.9-0.2,4.2c-0.6,2.5-2.5,4.4-5,4.2c-2.7-0.2-4.2-2.1-4.2-5c0-3.5-0.2-7.3,0-10.8
		c0.2-3.3-0.8-4.8-4.4-5.8c-6.9-1.7-10.4-11.6-6.9-17.7c1-1.9,2.7-2.9,5-2.5c2.1,0.4,3.3,1.9,3.7,4.2
		C554.7,362.7,553.9,364.7,556.6,366.4z"/>
	<path class="st3" d="M555.7,565.3c0-4.4,0-8.7,0-13.1c0-3.5,1.5-5.8,5.2-5.8c3.5,0.2,4.6,2.7,4.6,5.8c0,6.4,0,12.9,0,19.6
		c0.8-0.2,1.5-0.4,1.5-0.6c0.6-3.7,1.9-7.7,6.7-6c4.8,1.7,3.7,5.8,2.7,9.6c-1,3.1-3.1,6-6.2,6.7c-4.4,1-5,3.7-4.6,7.5
		c0,1,0,2.1,0,2.9c-0.2,2.9-2.1,4.4-4.6,4.4c-2.7,0-4.6-1.7-4.8-4.4c-0.2-2.1,0-4.4-0.2-6.7c-0.2-4.8,1.7-10-6.2-11.4
		c-5-1-7.3-13.1-4.2-17.3c1.2-1.7,2.9-2.1,4.8-1.9c2.3,0.2,3.5,1.9,4,4c0.4,2.1,0.4,4.2,0.6,6.4
		C554.9,565.3,555.3,565.3,555.7,565.3z"/>
	<path class="st2" d="M496.7,460.8c0-5.4,0-9.4,0-13.3c0-3.3,0.2-6.9,4.6-6.9c4.8,0,5.2,3.3,5.2,7.1c0,6,0,12.1,0,18.1
		c2.3-0.2,1.5-2.1,2.1-3.1c1-2.5,2.7-4.2,5.4-3.5c3.1,0.6,4.6,3.1,4.2,6.2c-0.4,4.4-2.5,8.5-6.7,9.8c-4.8,1.5-5.4,4.4-5,8.3
		c0.2,1.9,0.2,3.7-1.2,5.2c-1.2,1.2-2.9,2.3-4.8,1.7c-1.9-0.6-3.3-1.7-3.5-3.5c-0.2-2.3-0.2-4.8-0.2-7.1c0-5,1.2-10-6.4-11.4
		c-5-1-7.3-12.3-4.4-16.8c1.2-1.9,2.9-2.5,5.2-2.3c2.3,0.4,3.3,1.9,3.7,4C495,455.2,494,457.5,496.7,460.8z"/>
	<path class="st5" d="M321.7,497.7c0-4.2,0-8.5,0-12.7c0-3.1,0.4-5.8,4.4-5.8c3.7,0,5.2,2.3,5.2,5.8c0,3.1,0,6.4,0,9.6s0,6.4,0,9.8
		c2.1-0.8,1.2-2.7,2.1-4c1.2-1.7,2.7-3.1,4.8-2.7c2.3,0.4,4,1.9,4.2,4.4c0.4,5.6-1.7,10-6.9,12.1c-3.5,1.2-4.4,3.3-4.2,6.7
		c0.2,1.5,0,2.9-0.2,4.2c-0.6,2.5-2.5,4.4-5,4.2c-2.7-0.2-4.2-2.1-4.2-5c0-3.5-0.2-7.3,0-10.8c0.2-3.3-0.8-4.8-4.4-5.8
		c-6.9-1.7-10.4-11.6-6.9-17.7c1-1.9,2.7-2.9,5-2.5c2.1,0.4,3.3,1.9,3.7,4.2C319.9,493.7,319,495.8,321.7,497.7z"/>
	<path class="st4" d="M589.4,485.2c0-5,0-9.4,0-13.7c0-3.5,1.5-5.8,5.2-5.8c3.7,0,4.6,2.7,4.6,5.8c0,6.2,0,12.7,0,18.9
		c0.8-0.2,1.5,0,1.5-0.2c0.8-3.3,1.9-7.1,6.4-5.6c5,1.5,4.2,5.6,2.9,9.4c-1,3.1-2.9,6-6.2,6.9c-4.8,1-5.2,4.2-4.8,7.9
		c0.2,3.5-0.4,6.9-4.6,7.1c-4.4,0.2-5.4-3.3-5.2-7.1c0-2.1-0.2-4,0-6c0.4-4.4,0.2-7.5-5.6-8.7c-5.4-1.2-8.3-12.9-5.2-17.7
		c1-1.7,2.7-2.3,4.6-2.1c2.3,0.2,3.3,1.7,4.2,3.7C588.4,480,586.9,482.7,589.4,485.2z"/>
	<path class="st1" d="M959.1,125.5c0-4.2,0-8.5,0-12.7c0-3.1,0.4-5.8,4.4-5.8c3.7,0,5.2,2.3,5.2,5.8c0,3.1,0,6.4,0,9.6s0,6.4,0,9.8
		c2.1-0.8,1.2-2.7,2.1-4c1.2-1.7,2.7-3.1,4.8-2.7c2.3,0.4,4,1.9,4.2,4.4c0.4,5.6-1.7,10-6.9,12.1c-3.5,1.2-4.4,3.3-4.2,6.7
		c0.2,1.5,0,2.9-0.2,4.2c-0.6,2.5-2.5,4.4-5,4.2c-2.7-0.2-4.2-2.1-4.2-5c0-3.5-0.2-7.3,0-10.8c0.2-3.3-0.8-4.8-4.4-5.8
		c-6.9-1.7-10.4-11.6-6.9-17.7c1-1.9,2.7-2.9,5-2.5c2.1,0.4,3.3,1.9,3.7,4.2C957.2,121.6,956.4,123.7,959.1,125.5z"/>
	<path class="st2" d="M898,52.3c0-5.4,0-9.4,0-13.3c0-3.3,0.2-6.9,4.6-6.9c4.8,0,5.2,3.3,5.2,7.1c0,6,0,12.1,0,18.1
		c2.3-0.2,1.5-2.1,2.1-3.1c1-2.5,2.7-4.2,5.4-3.5c3.1,0.6,4.6,3.1,4.2,6.2c-0.4,4.4-2.5,8.5-6.7,9.8c-4.8,1.5-5.4,4.4-5,8.3
		c0.2,1.9,0.2,3.7-1.2,5.2c-1.2,1.2-2.9,2.3-4.8,1.7c-1.9-0.6-3.3-1.7-3.5-3.5c-0.2-2.3-0.2-4.8-0.2-7.1c0-5,1.2-10-6.4-11.4
		c-5-1-7.3-12.3-4.4-16.8c1.2-1.9,2.9-2.5,5.2-2.3c2.3,0.4,3.3,1.9,3.7,4C896.1,46.5,895,48.8,898,52.3z"/>
	<path class="st3" d="M694.1,66.4c0-4.4,0-8.7,0-13.1c0-3.5,1.5-5.8,5.2-5.8c3.5,0.2,4.6,2.7,4.6,5.8c0,6.4,0,12.9,0,19.6
		c0.8-0.2,1.5-0.4,1.5-0.6c0.6-3.7,1.9-7.7,6.7-6s3.7,5.8,2.7,9.6c-1,3.1-3.1,6-6.2,6.7c-4.4,1-5,3.7-4.6,7.5c0,1,0,2.1,0,2.9
		c-0.2,2.9-2.1,4.4-4.6,4.4c-2.7,0-4.6-1.7-4.8-4.4c-0.2-2.1,0-4.4-0.2-6.7c-0.2-4.8,1.7-10-6.2-11.4c-5-1-7.3-13.1-4.2-17.3
		c1.2-1.7,2.9-2.1,4.8-1.9c2.3,0.2,3.5,1.9,4,4c0.4,2.1,0.4,4.2,0.6,6.4C693.3,66.4,693.7,66.4,694.1,66.4z"/>
	<path class="st3" d="M981.6,20.1c0-4.4,0-8.7,0-13.1c0-3.5,1.5-5.8,5.2-5.8c3.5,0.2,4.6,2.7,4.6,5.8c0,6.4,0,12.9,0,19.6
		c0.8-0.2,1.5-0.4,1.5-0.6c0.6-3.7,1.9-7.7,6.7-6c4.8,1.7,3.7,5.8,2.7,9.6c-1,3.1-3.1,6-6.2,6.7c-4.4,1-5,3.7-4.6,7.5
		c0,1,0,2.1,0,2.9c-0.2,2.9-2.1,4.4-4.6,4.4c-2.7,0-4.6-1.7-4.8-4.4c-0.2-2.1,0-4.4-0.2-6.7c-0.2-4.8,1.7-10-6.2-11.4
		c-5-1-7.3-13.1-4.2-17.3c1.2-1.7,2.9-2.1,4.8-1.9c2.3,0.2,3.5,1.9,4,4s0.4,4.2,0.6,6.4C980.7,20.1,981.2,20.1,981.6,20.1z"/>
	<path class="st1" d="M658.7,120.5c0-4.2,0-8.5,0-12.7c0-3.1,0.4-5.8,4.4-5.8c3.7,0,5.2,2.3,5.2,5.8c0,3.1,0,6.4,0,9.6s0,6.4,0,9.8
		c2.1-0.8,1.2-2.7,2.1-4c1.2-1.7,2.7-3.1,4.8-2.7c2.3,0.4,4,1.9,4.2,4.4c0.4,5.6-1.7,10-6.9,12.1c-3.5,1.2-4.4,3.3-4.2,6.7
		c0.2,1.5,0,2.9-0.2,4.2c-0.6,2.5-2.5,4.4-5,4.2c-2.7-0.2-4.2-2.1-4.2-5c0-3.5-0.2-7.3,0-10.8c0.2-3.3-0.8-4.8-4.4-5.8
		c-6.9-1.7-10.4-11.6-6.9-17.7c1-1.9,2.7-2.9,5-2.5c2.1,0.4,3.3,1.9,3.7,4.2C656.7,116.6,655.8,118.7,658.7,120.5z"/>
	<path class="st4" d="M777.7,83.7c0-5,0-9.4,0-13.7c0-3.5,1.5-5.8,5.2-5.8c3.7,0,4.6,2.7,4.6,5.8c0,6.2,0,12.7,0,18.9
		c0.8-0.2,1.5,0,1.5-0.2c0.8-3.3,1.9-7.1,6.4-5.6c5,1.5,4.2,5.6,2.9,9.4c-1,3.1-2.9,6-6.2,6.9c-4.8,1-5.2,4.2-4.8,7.9
		c0.2,3.5-0.4,6.9-4.6,7.1c-4.4,0.2-5.4-3.3-5.2-7.1c0-2.1-0.2-4,0-6c0.4-4.4,0.2-7.5-5.6-8.7c-5.4-1.2-8.3-12.9-5.2-17.7
		c1-1.7,2.7-2.3,4.6-2.1c2.3,0.2,3.3,1.7,4.2,3.7C776.7,78.5,775.2,81.2,777.7,83.7z"/>
	<path class="st4" d="M710.1,253.7c0-5,0-9.4,0-13.7c0-3.5,1.5-5.8,5.2-5.8c3.7,0,4.6,2.7,4.6,5.8c0,6.2,0,12.7,0,18.9
		c0.8-0.2,1.5,0,1.5-0.2c0.8-3.3,1.9-7.1,6.4-5.6c5,1.5,4.2,5.6,2.9,9.4c-1,3.1-2.9,6-6.2,6.9c-4.8,1-5.2,4.2-4.8,7.9
		c0.2,3.5-0.4,6.9-4.6,7.1c-4.4,0.2-5.4-3.3-5.2-7.1c0-2.1-0.2-4,0-6c0.4-4.4,0.2-7.5-5.6-8.7c-5.4-1.2-8.3-12.9-5.2-17.7
		c1-1.7,2.7-2.3,4.6-2.1c2.3,0.2,3.3,1.7,4.2,3.7C709.1,248.5,707.6,251.2,710.1,253.7z"/>
	<path class="st4" d="M914.4,327.3c0-5,0-9.4,0-13.7c0-3.5,1.5-5.8,5.2-5.8s4.6,2.7,4.6,5.8c0,6.2,0,12.7,0,18.9
		c0.8-0.2,1.5,0,1.5-0.2c0.8-3.3,1.9-7.1,6.4-5.6c5,1.5,4.2,5.6,2.9,9.4c-1,3.1-2.9,6-6.2,6.9c-4.8,1-5.2,4.2-4.8,7.9
		c0.2,3.5-0.4,6.9-4.6,7.1c-4.4,0.2-5.4-3.3-5.2-7.1c0-2.1-0.2-4,0-6c0.4-4.4,0.2-7.5-5.6-8.7c-5.4-1.2-8.3-12.9-5.2-17.7
		c1-1.7,2.7-2.3,4.6-2.1c2.3,0.2,3.3,1.7,4.2,3.7C913.6,322.1,911.9,324.6,914.4,327.3z"/>
	<path class="st3" d="M1070,287.2c0-4.4,0-8.7,0-13.1c0-3.5,1.5-5.8,5.2-5.8c3.5,0.2,4.6,2.7,4.6,5.8c0,6.4,0,12.9,0,19.6
		c0.8-0.2,1.5-0.4,1.5-0.6c0.6-3.7,1.9-7.7,6.7-6c4.8,1.7,3.7,5.8,2.7,9.6c-1,3.1-3.1,6-6.2,6.7c-4.4,1-5,3.7-4.6,7.5
		c0,1,0,2.1,0,2.9c-0.2,2.9-2.1,4.4-4.6,4.4c-2.7,0-4.6-1.7-4.8-4.4c-0.2-2.1,0-4.4-0.2-6.7c-0.2-4.8,1.7-10-6.2-11.4
		c-5-1-7.3-13.1-4.2-17.3c1.2-1.7,2.9-2.1,4.8-1.9c2.3,0.2,3.5,1.9,4,4c0.4,2.1,0.4,4.2,0.6,6.4
		C1069.2,287.2,1069.6,287.2,1070,287.2z"/>
	<path class="st2" d="M641.3,202.3c0-5.4,0-9.4,0-13.3c0-3.3,0.2-6.9,4.6-6.9c4.8,0,5.2,3.3,5.2,7.1c0,6,0,12.1,0,18.1
		c2.3-0.2,1.5-2.1,2.1-3.1c1-2.5,2.7-4.2,5.4-3.5c3.1,0.6,4.6,3.1,4.2,6.2c-0.4,4.4-2.5,8.5-6.7,9.8c-4.8,1.5-5.4,4.4-5,8.3
		c0.2,1.9,0.2,3.7-1.2,5.2c-1.2,1.2-2.9,2.3-4.8,1.7c-1.9-0.6-3.3-1.7-3.5-3.5c-0.2-2.3-0.2-4.8-0.2-7.1c0-5,1.2-10-6.4-11.4
		c-5-1-7.3-12.3-4.4-16.8c1.2-1.9,2.9-2.5,5.2-2.3c2.3,0.4,3.3,1.9,3.7,4C639.6,196.7,638.6,199,641.3,202.3z"/>
	<path class="st3" d="M808.1,206.7c0-4.4,0-8.7,0-13.1c0-3.5,1.5-5.8,5.2-5.8c3.5,0.2,4.6,2.7,4.6,5.8c0,6.4,0,12.9,0,19.6
		c0.8-0.2,1.5-0.4,1.5-0.6c0.6-3.7,1.9-7.7,6.7-6c4.8,1.7,3.7,5.8,2.7,9.6c-1,3.1-3.1,6-6.2,6.7c-4.4,1-5,3.7-4.6,7.5
		c0,1,0,2.1,0,2.9c-0.2,2.9-2.1,4.4-4.6,4.4c-2.7,0-4.6-1.7-4.8-4.4c-0.2-2.1,0-4.4-0.2-6.7c-0.2-4.8,1.7-10-6.2-11.4
		c-5-1-7.3-13.1-4.2-17.3c1.2-1.7,2.9-2.1,4.8-1.9c2.3,0.2,3.5,1.9,4,4c0.4,2.1,0.4,4.2,0.6,6.4
		C807.3,206.4,807.7,206.7,808.1,206.7z"/>
	<path class="st4" d="M633.6,33.8c0-5,0-9.4,0-13.7c0-3.5,1.5-5.8,5.2-5.8c3.7,0,4.6,2.7,4.6,5.8c0,6.2,0,12.7,0,18.9
		c0.8-0.2,1.5,0,1.5-0.2c0.8-3.3,1.9-7.1,6.4-5.6c5,1.5,4.2,5.6,2.9,9.4c-1,3.1-2.9,6-6.2,6.9c-4.8,1-5.2,4.2-4.8,7.9
		c0.2,3.5-0.4,6.9-4.6,7.1c-4.4,0.2-5.4-3.3-5.2-7.1c0-2.1-0.2-4,0-6c0.4-4.4,0.2-7.5-5.6-8.7c-5.4-1.2-8.3-12.9-5.2-17.7
		c1-1.7,2.7-2.3,4.6-2.1c2.3,0.2,3.3,1.7,4.2,3.7C632.5,28.6,631.1,31.3,633.6,33.8z"/>
	<path class="st2" d="M927.1,233.1c0-5.4,0-9.4,0-13.3c0-3.3,0.2-6.9,4.6-6.9c4.8,0,5.2,3.3,5.2,7.1c0,6,0,12.1,0,18.1
		c2.3-0.2,1.5-2.1,2.1-3.1c1-2.5,2.7-4.2,5.4-3.5c3.1,0.6,4.6,3.1,4.2,6.2c-0.4,4.4-2.5,8.5-6.7,9.8c-4.8,1.5-5.4,4.4-5,8.3
		c0.2,1.9,0.2,3.7-1.2,5.2c-1.2,1.2-2.9,2.3-4.8,1.7c-1.9-0.6-3.3-1.7-3.5-3.5c-0.2-2.3-0.2-4.8-0.2-7.1c0-5,1.2-10-6.4-11.4
		c-5-1-7.3-12.3-4.4-16.8c1.2-1.9,2.9-2.5,5.2-2.3c2.3,0.4,3.3,1.9,3.7,4C925.4,227.2,924.4,229.5,927.1,233.1z"/>
	<path class="st5" d="M748,163.8c0-4.2,0-8.5,0-12.7c0-3.1,0.4-5.8,4.4-5.8c3.7,0,5.2,2.3,5.2,5.8c0,3.1,0,6.4,0,9.6
		c0,3.1,0,6.4,0,9.8c2.1-0.8,1.2-2.7,2.1-4c1.2-1.7,2.7-3.1,4.8-2.7c2.3,0.4,4,1.9,4.2,4.4c0.4,5.6-1.7,10-6.9,12.1
		c-3.5,1.2-4.4,3.3-4.2,6.7c0.2,1.5,0,2.9-0.2,4.2c-0.6,2.5-2.5,4.4-5,4.2c-2.7-0.2-4.2-2.1-4.2-5c0-3.5-0.2-7.3,0-10.8
		c0.2-3.3-0.8-4.8-4.4-5.8c-6.9-1.7-10.4-11.6-6.9-17.7c1-1.9,2.7-2.9,5-2.5c2.1,0.4,3.3,1.9,3.7,4.2
		C746.1,160.1,745.3,162.1,748,163.8z"/>
	<path class="st5" d="M837.6,269.1c0-4.2,0-8.5,0-12.7c0-3.1,0.4-5.8,4.4-5.8c3.7,0,5.2,2.3,5.2,5.8c0,3.1,0,6.4,0,9.6s0,6.4,0,9.8
		c2.1-0.8,1.2-2.7,2.1-4c1.2-1.7,2.7-3.1,4.8-2.7c2.3,0.4,4,1.9,4.2,4.4c0.4,5.6-1.7,10-6.9,12.1c-3.5,1.2-4.4,3.3-4.2,6.7
		c0.2,1.5,0,2.9-0.2,4.2c-0.6,2.5-2.5,4.4-5,4.2c-2.7-0.2-4.2-2.1-4.2-5c0-3.5-0.2-7.3,0-10.8c0.2-3.3-0.8-4.8-4.4-5.8
		c-6.9-1.7-10.4-11.6-6.9-17.7c1-1.9,2.7-2.9,5-2.5c2.1,0.4,3.3,1.9,3.7,4.2C835.6,265.1,834.9,267.2,837.6,269.1z"/>
	<path class="st5" d="M1029.8,200.4c0-4.2,0-8.5,0-12.7c0-3.1,0.4-5.8,4.4-5.8c3.7,0,5.2,2.3,5.2,5.8c0,3.1,0,6.4,0,9.6
		c0,3.1,0,6.4,0,9.8c2.1-0.8,1.2-2.7,2.1-4c1.2-1.7,2.7-3.1,4.8-2.7c2.3,0.4,4,1.9,4.2,4.4c0.4,5.6-1.7,10-6.9,12.1
		c-3.5,1.2-4.4,3.3-4.2,6.7c0.2,1.5,0,2.9-0.2,4.2c-0.6,2.5-2.5,4.4-5,4.2c-2.7-0.2-4.2-2.1-4.2-5c0-3.5-0.2-7.3,0-10.8
		c0.2-3.3-0.8-4.8-4.4-5.8c-6.9-1.7-10.4-11.6-6.9-17.7c1-1.9,2.7-2.9,5-2.5c2.1,0.4,3.3,1.9,3.7,4.2
		C1027.8,196.5,1026.9,198.5,1029.8,200.4z"/>
	<path class="st2" d="M1000.7,322.1c0-5.4,0-9.4,0-13.3c0-3.3,0.2-6.9,4.6-6.9c4.8,0,5.2,3.3,5.2,7.1c0,6,0,12.1,0,18.1
		c2.3-0.2,1.5-2.1,2.1-3.1c1-2.5,2.7-4.2,5.4-3.5c3.1,0.6,4.6,3.1,4.2,6.2c-0.4,4.4-2.5,8.5-6.7,9.8c-4.8,1.5-5.4,4.4-5,8.3
		c0.2,1.9,0.2,3.7-1.2,5.2c-1.2,1.2-2.9,2.3-4.8,1.7c-1.9-0.6-3.3-1.7-3.5-3.5c-0.2-2.3-0.2-4.8-0.2-7.1c0-5,1.2-10-6.4-11.4
		c-5-1-7.3-12.3-4.4-16.8c1.2-1.9,2.9-2.5,5.2-2.3c2.3,0.4,3.3,1.9,3.7,4C999.1,316.5,998,318.8,1000.7,322.1z"/>
	<path class="st5" d="M825.6,25.5c0-4.2,0-8.5,0-12.7c0-3.1,0.4-5.8,4.4-5.8c3.7,0,5.2,2.3,5.2,5.8c0,3.1,0,6.4,0,9.6s0,6.4,0,9.8
		c2.1-0.8,1.2-2.7,2.1-4c1.2-1.7,2.7-3.1,4.8-2.7c2.3,0.4,4,1.9,4.2,4.4c0.4,5.6-1.7,10-6.9,12.1c-3.5,1.2-4.4,3.3-4.2,6.7
		c0.2,1.5,0,2.9-0.2,4.2c-0.6,2.5-2.5,4.4-5,4.2c-2.7-0.2-4.2-2.1-4.2-5c0-3.5-0.2-7.3,0-10.8c0.2-3.3-0.8-4.8-4.4-5.8
		c-6.9-1.7-10.4-11.6-6.9-17.7c1-1.9,2.7-2.9,5-2.5c2.1,0.4,3.3,1.9,3.7,4.2C823.5,21.5,822.7,23.6,825.6,25.5z"/>
	<path class="st2" d="M765.9,331.7c0-5.4,0-9.4,0-13.3c0-3.3,0.2-6.9,4.6-6.9c4.8,0,5.2,3.3,5.2,7.1c0,6,0,12.1,0,18.1
		c2.3-0.2,1.5-2.1,2.1-3.1c1-2.5,2.7-4.2,5.4-3.5c3.1,0.6,4.6,3.1,4.2,6.2c-0.4,4.4-2.5,8.5-6.7,9.8c-4.8,1.5-5.4,4.4-5,8.3
		c0.2,1.9,0.2,3.7-1.2,5.2c-1.2,1.2-2.9,2.3-4.8,1.7s-3.3-1.7-3.5-3.5c-0.2-2.3-0.2-4.8-0.2-7.1c0-5,1.2-10-6.4-11.4
		c-5-1-7.3-12.3-4.4-16.8c1.2-1.9,2.9-2.5,5.2-2.3c2.3,0.4,3.3,1.9,3.7,4C764,326.1,763,328.3,765.9,331.7z"/>
	<path class="st1" d="M1096.8,32.7c0-4.2,0-8.5,0-12.7c0-3.1,0.4-5.8,4.4-5.8c3.7,0,5.2,2.3,5.2,5.8c0,3.1,0,6.4,0,9.6s0,6.4,0,9.8
		c2.1-0.8,1.2-2.7,2.1-4c1.2-1.7,2.7-3.1,4.8-2.7c2.3,0.4,4,1.9,4.2,4.4c0.4,5.6-1.7,10-6.9,12.1c-3.5,1.2-4.4,3.3-4.2,6.7
		c0.2,1.5,0,2.9-0.2,4.2c-0.6,2.5-2.5,4.4-5,4.2c-2.7-0.2-4.2-2.1-4.2-5c0-3.5-0.2-7.3,0-10.8c0.2-3.3-0.8-4.8-4.4-5.8
		c-6.9-1.7-10.4-11.6-6.9-17.7c1-1.9,2.7-2.9,5-2.5c2.1,0.4,3.3,1.9,3.7,4.2C1094.9,29,1094.1,30.9,1096.8,32.7z"/>
	<path class="st3" d="M1110.3,206.7c0-4.4,0-8.7,0-13.1c0-3.5,1.5-5.8,5.2-5.8c3.5,0.2,4.6,2.7,4.6,5.8c0,6.4,0,12.9,0,19.6
		c0.8-0.2,1.5-0.4,1.5-0.6c0.6-3.7,1.9-7.7,6.7-6c4.8,1.7,3.7,5.8,2.7,9.6c-1,3.1-3.1,6-6.2,6.7c-4.4,1-5,3.7-4.6,7.5
		c0,1,0,2.1,0,2.9c-0.2,2.9-2.1,4.4-4.6,4.4c-2.7,0-4.6-1.7-4.8-4.4c-0.2-2.1,0-4.4-0.2-6.7c-0.2-4.8,1.7-10-6.2-11.4
		c-5-1-7.3-13.1-4.2-17.3c1.2-1.7,2.9-2.1,4.8-1.9c2.3,0.2,3.5,1.9,4,4c0.4,2.1,0.4,4.2,0.6,6.4
		C1109.5,206.4,1109.9,206.7,1110.3,206.7z"/>
	<path class="st2" d="M1051.3,102.2c0-5.4,0-9.4,0-13.3c0-3.3,0.2-6.9,4.6-6.9c4.8,0,5.2,3.3,5.2,7.1c0,6,0,12.1,0,18.1
		c2.3-0.2,1.5-2.1,2.1-3.1c1-2.5,2.7-4.2,5.4-3.5c3.1,0.6,4.6,3.1,4.2,6.2c-0.4,4.4-2.5,8.5-6.7,9.8c-4.8,1.5-5.4,4.4-5,8.3
		c0.2,1.9,0.2,3.7-1.2,5.2c-1.2,1.2-2.9,2.3-4.8,1.7s-3.3-1.7-3.5-3.5c-0.2-2.3-0.2-4.8-0.2-7.1c0-5,1.2-10-6.4-11.4
		c-5-1-7.3-12.3-4.4-16.8c1.2-1.9,2.9-2.5,5.2-2.3c2.3,0.4,3.3,1.9,3.7,4C1049.6,96.6,1048.6,98.9,1051.3,102.2z"/>
	<path class="st5" d="M876.3,138.8c0-4.2,0-8.5,0-12.7c0-3.1,0.4-5.8,4.4-5.8c3.7,0,5.2,2.3,5.2,5.8c0,3.1,0,6.4,0,9.6
		c0,3.1,0,6.4,0,9.8c2.1-0.8,1.2-2.7,2.1-4c1.2-1.7,2.7-3.1,4.8-2.7c2.3,0.4,4,1.9,4.2,4.4c0.4,5.6-1.7,10-6.9,12.1
		c-3.5,1.2-4.4,3.3-4.2,6.7c0.2,1.5,0,2.9-0.2,4.2c-0.6,2.5-2.5,4.4-5,4.2c-2.7-0.2-4.2-2.1-4.2-5c0-3.5-0.2-7.3,0-10.8
		c0.2-3.3-0.8-4.8-4.4-5.8c-6.9-1.7-10.4-11.6-6.9-17.7c1-1.9,2.7-2.9,5-2.5c2.1,0.4,3.3,1.9,3.7,4.2
		C874.5,134.9,873.6,137,876.3,138.8z"/>
	<path class="st4" d="M1144,126.6c0-5,0-9.4,0-13.7c0-3.5,1.5-5.8,5.2-5.8s4.6,2.7,4.6,5.8c0,6.2,0,12.7,0,18.9
		c0.8-0.2,1.5,0,1.5-0.2c0.8-3.3,1.9-7.1,6.4-5.6c5,1.5,4.2,5.6,2.9,9.4c-1,3.1-2.9,6-6.2,6.9c-4.8,1-5.2,4.2-4.8,7.9
		c0.2,3.5-0.4,6.9-4.6,7.1c-4.4,0.2-5.4-3.3-5.2-7.1c0-2.1-0.2-4,0-6c0.4-4.4,0.2-7.5-5.6-8.7c-5.4-1.2-8.3-12.9-5.2-17.7
		c1-1.7,2.7-2.3,4.6-2.1c2.3,0.2,3.3,1.7,4.2,3.7C1143,121.4,1141.5,123.9,1144,126.6z"/>
	<path class="st3" d="M616.7,301.5c0-4.4,0-8.7,0-13.1c0-3.5,1.5-5.8,5.2-5.8c3.5,0.2,4.6,2.7,4.6,5.8c0,6.4,0,12.9,0,19.6
		c0.8-0.2,1.5-0.4,1.5-0.6c0.6-3.7,1.9-7.7,6.7-6c4.8,1.7,3.7,5.8,2.7,9.6c-1,3.1-3.1,6-6.2,6.7c-4.4,1-5,3.7-4.6,7.5
		c0,1,0,2.1,0,2.9c-0.2,2.9-2.1,4.4-4.6,4.4c-2.7,0-4.6-1.7-4.8-4.4c-0.2-2.1,0-4.4-0.2-6.7c-0.2-4.8,1.7-10-6.2-11.4
		c-5-1-7.3-13.1-4.2-17.3c1.2-1.7,2.9-2.1,4.8-1.9c2.3,0.2,3.5,1.9,4,4c0.4,2.1,0.4,4.2,0.6,6.4
		C615.9,301.5,616.3,301.5,616.7,301.5z"/>
	<path class="st1" d="M976.4,485.6c0-4.2,0-8.5,0-12.7c0-3.1,0.4-5.8,4.4-5.8c3.7,0,5.2,2.3,5.2,5.8c0,3.1,0,6.4,0,9.6s0,6.4,0,9.8
		c2.1-0.8,1.2-2.7,2.1-4c1.2-1.7,2.7-3.1,4.8-2.7c2.3,0.4,4,1.9,4.2,4.4c0.4,5.6-1.7,10-6.9,12.1c-3.5,1.2-4.4,3.3-4.2,6.7
		c0.2,1.5,0,2.9-0.2,4.2c-0.6,2.5-2.5,4.4-5,4.2c-2.7-0.2-4.2-2.1-4.2-5c0-3.5-0.2-7.3,0-10.8c0.2-3.3-0.8-4.8-4.4-5.8
		c-6.9-1.7-10.4-11.6-6.9-17.7c1-1.9,2.7-2.9,5-2.5c2.1,0.4,3.3,1.9,3.7,4.2C974.5,481.6,973.7,483.7,976.4,485.6z"/>
	<path class="st2" d="M915,412.4c0-5.4,0-9.4,0-13.3c0-3.3,0.2-6.9,4.6-6.9c4.8,0,5.2,3.3,5.2,7.1c0,6,0,12.1,0,18.1
		c2.3-0.2,1.5-2.1,2.1-3.1c1-2.5,2.7-4.2,5.4-3.5c3.1,0.6,4.6,3.1,4.2,6.2c-0.4,4.4-2.5,8.5-6.7,9.8c-4.8,1.5-5.4,4.4-5,8.3
		c0.2,1.9,0.2,3.7-1.2,5.2c-1.2,1.2-2.9,2.3-4.8,1.7s-3.3-1.7-3.5-3.5c-0.2-2.3-0.2-4.8-0.2-7.1c0-5,1.2-10-6.4-11.4
		c-5-1-7.3-12.3-4.4-16.8c1.2-1.9,2.9-2.5,5.2-2.3c2.3,0.4,3.3,1.9,3.7,4C913.3,406.8,912.3,409.1,915,412.4z"/>
	<path class="st3" d="M711.4,426.7c0-4.4,0-8.7,0-13.1c0-3.5,1.5-5.8,5.2-5.8c3.5,0.2,4.6,2.7,4.6,5.8c0,6.4,0,12.9,0,19.6
		c0.8-0.2,1.5-0.4,1.5-0.6c0.6-3.7,1.9-7.7,6.7-6s3.7,5.8,2.7,9.6c-1,3.1-3.1,6-6.2,6.7c-4.4,1-5,3.7-4.6,7.5c0,1,0,2.1,0,2.9
		c-0.2,2.9-2.1,4.4-4.6,4.4c-2.7,0-4.6-1.7-4.8-4.4c-0.2-2.1,0-4.4-0.2-6.7c-0.2-4.8,1.7-10-6.2-11.4c-5-1-7.3-13.1-4.2-17.3
		c1.2-1.7,2.9-2.1,4.8-1.9c2.3,0.2,3.5,1.9,4,4c0.4,2.1,0.4,4.2,0.6,6.4C710.5,426.5,710.9,426.7,711.4,426.7z"/>
	<path class="st3" d="M1034.8,391c0-4.4,0-8.7,0-13.1c0-3.5,1.5-5.8,5.2-5.8c3.5,0.2,4.6,2.7,4.6,5.8c0,6.4,0,12.9,0,19.6
		c0.8-0.2,1.5-0.4,1.5-0.6c0.6-3.7,1.9-7.7,6.7-6c4.8,1.7,3.7,5.8,2.7,9.6c-1,3.1-3.1,6-6.2,6.7c-4.4,1-5,3.7-4.6,7.5
		c0,1,0,2.1,0,2.9c-0.2,2.9-2.1,4.4-4.6,4.4c-2.7,0-4.6-1.7-4.8-4.4c-0.2-2.1,0-4.4-0.2-6.7c-0.2-4.8,1.7-10-6.2-11.4
		c-5-1-7.3-13.1-4.2-17.3c1.2-1.7,2.9-2.1,4.8-1.9c2.3,0.2,3.5,1.9,4,4c0.4,2.1,0.4,4.2,0.6,6.4C1034,390.7,1034.4,390.7,1034.8,391
		z"/>
	<path class="st1" d="M676,480.6c0-4.2,0-8.5,0-12.7c0-3.1,0.4-5.8,4.4-5.8c3.7,0,5.2,2.3,5.2,5.8c0,3.1,0,6.4,0,9.6
		c0,3.1,0,6.4,0,9.8c2.1-0.8,1.2-2.7,2.1-4c1.2-1.7,2.7-3.1,4.8-2.7c2.3,0.4,4,1.9,4.2,4.4c0.4,5.6-1.7,10-6.9,12.1
		c-3.5,1.2-4.4,3.3-4.2,6.7c0.2,1.5,0,2.9-0.2,4.2c-0.6,2.5-2.5,4.4-5,4.2c-2.7-0.2-4.2-2.1-4.2-5c0-3.5-0.2-7.3,0-10.8
		c0.2-3.3-0.8-4.8-4.4-5.8c-6.9-1.7-10.4-11.6-6.9-17.7c1-1.9,2.7-2.9,5-2.5c2.1,0.4,3.3,1.9,3.7,4.2
		C673.9,476.7,673.1,478.7,676,480.6z"/>
	<path class="st4" d="M795,443.8c0-5,0-9.4,0-13.7c0-3.5,1.5-5.8,5.2-5.8c3.7,0,4.6,2.7,4.6,5.8c0,6.2,0,12.7,0,18.9
		c0.8-0.2,1.5,0,1.5-0.2c0.8-3.3,1.9-7.1,6.4-5.6c5,1.5,4.2,5.6,2.9,9.4c-1,3.1-2.9,6-6.2,6.9c-4.8,1-5.2,4.2-4.8,7.9
		c0.2,3.5-0.4,6.9-4.6,7.1c-4.4,0.2-5.4-3.3-5.2-7.1c0-2.1-0.2-4,0-6c0.4-4.4,0.2-7.5-5.6-8.7c-5.4-1.2-8.3-12.9-5.2-17.7
		c1-1.7,2.7-2.3,4.6-2.1c2.3,0.2,3.3,1.7,4.2,3.7C793.9,438.6,792.5,441.3,795,443.8z"/>
	<path class="st2" d="M658.5,562.4c0-5.4,0-9.4,0-13.3c0-3.3,0.2-6.9,4.6-6.9c4.8,0,5.2,3.3,5.2,7.1c0,6,0,12.1,0,18.1
		c2.3-0.2,1.5-2.1,2.1-3.1c1-2.5,2.7-4.2,5.4-3.5c3.1,0.6,4.6,3.1,4.2,6.2c-0.4,4.4-2.5,8.5-6.7,9.8c-4.8,1.5-5.4,4.4-5,8.3
		c0.2,1.9,0.2,3.7-1.2,5.2c-1.2,1.2-2.9,2.3-4.8,1.7c-1.9-0.6-3.3-1.7-3.5-3.5c-0.2-2.3-0.2-4.8-0.2-7.1c0-5,1.2-10-6.4-11.4
		c-5-1-7.3-12.3-4.4-16.8c1.2-1.9,2.9-2.5,5.2-2.3c2.3,0.4,3.3,1.9,3.7,4C656.9,556.7,655.8,559,658.5,562.4z"/>
	<path class="st3" d="M825.4,566.7c0-4.4,0-8.7,0-13.1c0-3.5,1.5-5.8,5.2-5.8c3.5,0.2,4.6,2.7,4.6,5.8c0,6.4,0,12.9,0,19.6
		c0.8-0.2,1.5-0.4,1.5-0.6c0.6-3.7,1.9-7.7,6.7-6c4.8,1.7,3.7,5.8,2.7,9.6c-1,3.1-3.1,6-6.2,6.7c-4.4,1-5,3.7-4.6,7.5
		c0,1,0,2.1,0,2.9c-0.2,2.9-2.1,4.4-4.6,4.4c-2.7,0-4.6-1.7-4.8-4.4c-0.2-2.1,0-4.4-0.2-6.7c-0.2-4.8,1.7-10-6.2-11.4
		c-5-1-7.3-13.1-4.2-17.3c1.2-1.7,2.9-2.1,4.8-1.9c2.3,0.2,3.5,1.9,4,4c0.4,2.1,0.4,4.2,0.6,6.4
		C824.5,566.7,824.9,566.7,825.4,566.7z"/>
	<path class="st4" d="M650.8,393.9c0-5,0-9.4,0-13.7c0-3.5,1.5-5.8,5.2-5.8c3.7,0,4.6,2.7,4.6,5.8c0,6.2,0,12.7,0,18.9
		c0.8-0.2,1.5,0,1.5-0.2c0.8-3.3,1.9-7.1,6.4-5.6c5,1.5,4.2,5.6,2.9,9.4c-1,3.1-2.9,6-6.2,6.9c-4.8,1-5.2,4.2-4.8,7.9
		c0.2,3.5-0.4,6.9-4.6,7.1c-4.4,0.2-5.4-3.3-5.2-7.1c0-2.1-0.2-4,0-6c0.4-4.4,0.2-7.5-5.6-8.7c-5.4-1.2-8.3-12.9-5.2-17.7
		c1-1.7,2.7-2.3,4.6-2.1c2.3,0.2,3.3,1.7,4.2,3.7C649.8,388.7,648.3,391.4,650.8,393.9z"/>
	<path class="st2" d="M944.3,593.1c0-5.4,0-9.4,0-13.3c0-3.3,0.2-6.9,4.6-6.9c4.8,0,5.2,3.3,5.2,7.1c0,6,0,12.1,0,18.1
		c2.3-0.2,1.5-2.1,2.1-3.1c1-2.5,2.7-4.2,5.4-3.5c3.1,0.6,4.6,3.1,4.2,6.2c-0.4,4.4-2.5,8.5-6.7,9.8c-4.8,1.5-5.4,4.4-5,8.3
		c0.2,1.9,0.2,3.7-1.2,5.2c-1.2,1.2-2.9,2.3-4.8,1.7c-1.9-0.6-3.3-1.7-3.5-3.5c-0.2-2.3-0.2-4.8-0.2-7.1c0-5,1.2-10-6.4-11.4
		c-5-1-7.3-12.3-4.4-16.8c1.2-1.9,2.9-2.5,5.2-2.3c2.3,0.4,3.3,1.9,3.7,4C942.7,587.5,941.6,589.8,944.3,593.1z"/>
	<path class="st5" d="M765.2,524.1c0-4.2,0-8.5,0-12.7c0-3.1,0.4-5.8,4.4-5.8c3.7,0,5.2,2.3,5.2,5.8c0,3.1,0,6.4,0,9.6s0,6.4,0,9.8
		c2.1-0.8,1.2-2.7,2.1-4c1.2-1.7,2.7-3.1,4.8-2.7c2.3,0.4,4,1.9,4.2,4.4c0.4,5.6-1.7,10-6.9,12.1c-3.5,1.2-4.4,3.3-4.2,6.7
		c0.2,1.5,0,2.9-0.2,4.2c-0.6,2.5-2.5,4.4-5,4.2c-2.7-0.2-4.2-2.1-4.2-5c0-3.5-0.2-7.3,0-10.8c0.2-3.3-0.8-4.8-4.4-5.8
		c-6.9-1.7-10.4-11.6-6.9-17.7c1-1.9,2.7-2.9,5-2.5c2.1,0.4,3.3,1.9,3.7,4.2C763.4,520.1,762.5,522.2,765.2,524.1z"/>
	<path class="st5" d="M1046.9,560.7c0-4.2,0-8.5,0-12.7c0-3.1,0.4-5.8,4.4-5.8c3.7,0,5.2,2.3,5.2,5.8c0,3.1,0,6.4,0,9.6s0,6.4,0,9.8
		c2.1-0.8,1.2-2.7,2.1-4c1.2-1.7,2.7-3.1,4.8-2.7c2.3,0.4,4,1.9,4.2,4.4c0.4,5.6-1.7,10-6.9,12.1c-3.5,1.2-4.4,3.3-4.2,6.7
		c0.2,1.5,0,2.9-0.2,4.2c-0.6,2.5-2.5,4.4-5,4.2c-2.7-0.2-4.2-2.1-4.2-5c0-3.5-0.2-7.3,0-10.8c0.2-3.3-0.8-4.8-4.4-5.8
		c-6.9-1.7-10.4-11.6-6.9-17.7c1-1.9,2.7-2.9,5-2.5c2.1,0.4,3.3,1.9,3.7,4.2C1045,556.7,1044.2,558.8,1046.9,560.7z"/>
	<path class="st5" d="M842.6,385.5c0-4.2,0-8.5,0-12.7c0-3.1,0.4-5.8,4.4-5.8c3.7,0,5.2,2.3,5.2,5.8c0,3.1,0,6.4,0,9.6s0,6.4,0,9.8
		c2.1-0.8,1.2-2.7,2.1-4c1.2-1.7,2.7-3.1,4.8-2.7c2.3,0.4,4,1.9,4.2,4.4c0.4,5.6-1.7,10-6.9,12.1c-3.5,1.2-4.4,3.3-4.2,6.7
		c0.2,1.5,0,2.9-0.2,4.2c-0.6,2.5-2.5,4.4-5,4.2c-2.7-0.2-4.2-2.1-4.2-5c0-3.5-0.2-7.3,0-10.8c0.2-3.3-0.8-4.8-4.4-5.8
		c-6.9-1.7-10.4-11.6-6.9-17.7c1-1.9,2.7-2.9,5-2.5c2.1,0.4,3.3,1.9,3.7,4.2C840.8,381.6,839.9,383.7,842.6,385.5z"/>
	<path class="st1" d="M1128.4,367.9c0-4.2,0-8.5,0-12.7c0-3.1,0.4-5.8,4.4-5.8c3.7,0,5.2,2.3,5.2,5.8c0,3.1,0,6.4,0,9.6
		c0,3.1,0,6.4,0,9.8c2.1-0.8,1.2-2.7,2.1-4c1.2-1.7,2.7-3.1,4.8-2.7c2.3,0.4,4,1.9,4.2,4.4c0.4,5.6-1.7,10-6.9,12.1
		c-3.5,1.2-4.4,3.3-4.2,6.7c0.2,1.5,0,2.9-0.2,4.2c-0.6,2.5-2.5,4.4-5,4.2c-2.7-0.2-4.2-2.1-4.2-5c0-3.5-0.2-7.3,0-10.8
		c0.2-3.3-0.8-4.8-4.4-5.8c-6.9-1.7-10.4-11.6-6.9-17.7c1-1.9,2.7-2.9,5-2.5c2.1,0.4,3.3,1.9,3.7,4.2
		C1126.6,364.1,1125.7,366.2,1128.4,367.9z"/>
	<path class="st3" d="M1127.6,566.7c0-4.4,0-8.7,0-13.1c0-3.5,1.5-5.8,5.2-5.8c3.5,0.2,4.6,2.7,4.6,5.8c0,6.4,0,12.9,0,19.6
		c0.8-0.2,1.5-0.4,1.5-0.6c0.6-3.7,1.9-7.7,6.7-6c4.8,1.7,3.7,5.8,2.7,9.6c-1,3.1-3.1,6-6.2,6.7c-4.4,1-5,3.7-4.6,7.5
		c0,1,0,2.1,0,2.9c-0.2,2.9-2.1,4.4-4.6,4.4c-2.7,0-4.6-1.7-4.8-4.4c-0.2-2.1,0-4.4-0.2-6.7c-0.2-4.8,1.7-10-6.2-11.4
		c-5-1-7.3-13.1-4.2-17.3c1.2-1.7,2.9-2.1,4.8-1.9c2.3,0.2,3.5,1.9,4,4c0.4,2.1,0.4,4.2,0.6,6.4
		C1126.8,566.7,1127.2,566.7,1127.6,566.7z"/>
	<path class="st2" d="M1068.5,462.3c0-5.4,0-9.4,0-13.3c0-3.3,0.2-6.9,4.6-6.9c4.8,0,5.2,3.3,5.2,7.1c0,6,0,12.1,0,18.1
		c2.3-0.2,1.5-2.1,2.1-3.1c1-2.5,2.7-4.2,5.4-3.5c3.1,0.6,4.6,3.1,4.2,6.2c-0.4,4.4-2.5,8.5-6.7,9.8c-4.8,1.5-5.4,4.4-5,8.3
		c0.2,1.9,0.2,3.7-1.2,5.2c-1.2,1.2-2.9,2.3-4.8,1.7s-3.3-1.7-3.5-3.5c-0.2-2.3-0.2-4.8-0.2-7.1c0-5,1.2-10-6.4-11.4
		c-5-1-7.3-12.3-4.4-16.8c1.2-1.9,2.9-2.5,5.2-2.3c2.3,0.4,3.3,1.9,3.7,4C1066.9,456.7,1065.8,459,1068.5,462.3z"/>
	<path class="st5" d="M893.6,499.1c0-4.2,0-8.5,0-12.7c0-3.1,0.4-5.8,4.4-5.8c3.7,0,5.2,2.3,5.2,5.8c0,3.1,0,6.4,0,9.6s0,6.4,0,9.8
		c2.1-0.8,1.2-2.7,2.1-4c1.2-1.7,2.7-3.1,4.8-2.7c2.3,0.4,4,1.9,4.2,4.4c0.4,5.6-1.7,10-6.9,12.1c-3.5,1.2-4.4,3.3-4.2,6.7
		c0.2,1.5,0,2.9-0.2,4.2c-0.6,2.5-2.5,4.4-5,4.2c-2.7-0.2-4.2-2.1-4.2-5c0-3.5-0.2-7.3,0-10.8c0.2-3.3-0.8-4.8-4.4-5.8
		c-6.9-1.7-10.4-11.6-6.9-17.7c1-1.9,2.7-2.9,5-2.5c2.1,0.4,3.3,1.9,3.7,4.2C891.7,495.2,890.9,497.2,893.6,499.1z"/>
	<path class="st4" d="M1161.3,486.6c0-5,0-9.4,0-13.7c0-3.5,1.5-5.8,5.2-5.8c3.7,0,4.6,2.7,4.6,5.8c0,6.2,0,12.7,0,18.9
		c0.8-0.2,1.5,0,1.5-0.2c0.8-3.3,1.9-7.1,6.4-5.6c5,1.5,4.2,5.6,2.9,9.4c-1,3.1-2.9,6-6.2,6.9c-4.8,1-5.2,4.2-4.8,7.9
		c0.2,3.5-0.4,6.9-4.6,7.1c-4.4,0.2-5.4-3.3-5.2-7.1c0-2.1-0.2-4,0-6c0.4-4.4,0.2-7.5-5.6-8.7c-5.4-1.2-8.3-12.9-5.2-17.7
		c1-1.7,2.7-2.3,4.6-2.1c2.3,0.2,3.3,1.7,4.2,3.7C1160.3,481.4,1158.8,484.1,1161.3,486.6z"/>
</g>
</svg>
