<?xml version="1.0" encoding="utf-8"?>
<!-- Generator: Adobe Illustrator 23.0.4, SVG Export Plug-In . SVG Version: 6.00 Build 0)  -->
<svg version="1.1" id="Layer_1" xmlns="http://www.w3.org/2000/svg" xmlns:xlink="http://www.w3.org/1999/xlink" x="0px" y="0px"
	 viewBox="0 0 283.3 290.4" style="enable-background:new 0 0 283.3 290.4;" xml:space="preserve">
<style type="text/css">
	.st0{fill:#6C4C42;}
	.st1{fill:#697AC8;}
	.st2{fill:#93C4CE;}
	.st3{fill:#EA507A;}
	.st4{fill:#EDBB98;}
</style>
<title>pattern</title>
<path class="st0" d="M179.5,61c0-2,0-4.1,0-6.1c0-1.5,0.2-2.8,2.1-2.8c1.8,0,2.5,1.1,2.5,2.8c0,1.5,0,3.1,0,4.6c0,1.5,0,3.1,0,4.7
	c1-0.4,0.6-1.3,1-1.9c0.6-0.8,1.3-1.5,2.3-1.3c1.1,0.2,1.9,0.9,2,2.1c0.2,2.7-0.8,4.8-3.3,5.8c-1.7,0.6-2.1,1.6-2,3.2
	c0.1,0.7,0,1.4-0.1,2c-0.3,1.2-1.2,2.1-2.4,2c-1.3-0.1-2-1-2-2.4c0-1.7-0.1-3.5,0-5.2c0.1-1.6-0.4-2.3-2.1-2.8
	c-3.3-0.8-5-5.6-3.3-8.5c0.5-0.9,1.3-1.4,2.4-1.2c1,0.2,1.6,0.9,1.8,2C178.6,59.1,178.2,60.1,179.5,61z"/>
<path class="st1" d="M150.1,25.8c0-2.6,0-4.5,0-6.4c0-1.6,0.1-3.3,2.2-3.3c2.3,0,2.5,1.6,2.5,3.4c0,2.9,0,5.8,0,8.7
	c1.1-0.1,0.7-1,1-1.5c0.5-1.2,1.3-2,2.6-1.7c1.5,0.3,2.2,1.5,2,3c-0.2,2.1-1.2,4.1-3.2,4.7c-2.3,0.7-2.6,2.1-2.4,4
	c0.1,0.9,0.1,1.8-0.6,2.5c-0.6,0.6-1.4,1.1-2.3,0.8c-0.9-0.3-1.6-0.8-1.7-1.7c-0.1-1.1-0.1-2.3-0.1-3.4c0-2.4,0.6-4.8-3.1-5.5
	c-2.4-0.5-3.5-5.9-2.1-8.1c0.6-0.9,1.4-1.2,2.5-1.1c1.1,0.2,1.6,0.9,1.8,1.9C149.2,23,148.7,24.1,150.1,25.8z"/>
<path class="st2" d="M52.1,32.6c0-2.1,0-4.2,0-6.3c0-1.7,0.7-2.8,2.5-2.8c1.7,0.1,2.2,1.3,2.2,2.8c0,3.1,0,6.2,0,9.4
	c0.4-0.1,0.7-0.2,0.7-0.3c0.3-1.8,0.9-3.7,3.2-2.9c2.3,0.8,1.8,2.8,1.3,4.6c-0.5,1.5-1.5,2.9-3,3.2c-2.1,0.5-2.4,1.8-2.2,3.6
	c0,0.5,0,1,0,1.4c-0.1,1.4-1,2.1-2.2,2.1c-1.3,0-2.2-0.8-2.3-2.1c-0.1-1,0-2.1-0.1-3.2c-0.1-2.3,0.8-4.8-3-5.5
	c-2.4-0.5-3.5-6.3-2-8.3c0.6-0.8,1.4-1,2.3-0.9c1.1,0.1,1.7,0.9,1.9,1.9c0.2,1,0.2,2,0.3,3.1C51.7,32.6,51.9,32.6,52.1,32.6z"/>
<path class="st2" d="M190.3,10.3c0-2.1,0-4.2,0-6.3c0-1.7,0.7-2.8,2.5-2.8c1.7,0.1,2.2,1.3,2.2,2.8c0,3.1,0,6.2,0,9.4
	c0.4-0.1,0.7-0.2,0.7-0.3c0.3-1.8,0.9-3.7,3.2-2.9c2.3,0.8,1.8,2.8,1.3,4.6c-0.5,1.5-1.5,2.9-3,3.2c-2.1,0.5-2.4,1.8-2.2,3.6
	c0,0.5,0,1,0,1.4c-0.1,1.4-1,2.1-2.2,2.1c-1.3,0-2.2-0.8-2.3-2.1c-0.1-1,0-2.1-0.1-3.2c-0.1-2.3,0.8-4.8-3-5.5
	c-2.4-0.5-3.5-6.3-2-8.3c0.6-0.8,1.4-1,2.3-0.9c1.1,0.1,1.7,0.9,1.9,1.9c0.2,1,0.2,2,0.3,3.1C189.9,10.3,190.1,10.3,190.3,10.3z"/>
<path class="st0" d="M35.1,58.6c0-2,0-4.1,0-6.1c0-1.5,0.2-2.8,2.1-2.8c1.8,0,2.5,1.1,2.5,2.8c0,1.5,0,3.1,0,4.6c0,1.5,0,3.1,0,4.7
	c1-0.4,0.6-1.3,1-1.9c0.6-0.8,1.3-1.5,2.3-1.3c1.1,0.2,1.9,0.9,2,2.1c0.2,2.7-0.8,4.8-3.3,5.8c-1.7,0.6-2.1,1.6-2,3.2
	c0.1,0.7,0,1.4-0.1,2c-0.3,1.2-1.2,2.1-2.4,2c-1.3-0.1-2-1-2-2.4c0-1.7-0.1-3.5,0-5.2c0.1-1.6-0.4-2.3-2.1-2.8
	c-3.3-0.8-5-5.6-3.3-8.5c0.5-0.9,1.3-1.4,2.4-1.2c1,0.2,1.6,0.9,1.8,2C34.1,56.7,33.7,57.7,35.1,58.6z"/>
<path class="st3" d="M92.3,40.9c0-2.4,0-4.5,0-6.6c0-1.7,0.7-2.8,2.5-2.8c1.8,0,2.2,1.3,2.2,2.8c0,3,0,6.1,0,9.1
	c0.4-0.1,0.7,0,0.7-0.1c0.4-1.6,0.9-3.4,3.1-2.7c2.4,0.7,2,2.7,1.4,4.5c-0.5,1.5-1.4,2.9-3,3.3c-2.3,0.5-2.5,2-2.3,3.8
	c0.1,1.7-0.2,3.3-2.2,3.4c-2.1,0.1-2.6-1.6-2.5-3.4c0-1-0.1-1.9,0-2.9c0.2-2.1,0.1-3.6-2.7-4.2c-2.6-0.6-4-6.2-2.5-8.5
	c0.5-0.8,1.3-1.1,2.2-1c1.1,0.1,1.6,0.8,2,1.8C91.8,38.4,91.1,39.7,92.3,40.9z"/>
<path class="st3" d="M59.8,122.6c0-2.4,0-4.5,0-6.6c0-1.7,0.7-2.8,2.5-2.8c1.8,0,2.2,1.3,2.2,2.8c0,3,0,6.1,0,9.1
	c0.4-0.1,0.7,0,0.7-0.1c0.4-1.6,0.9-3.4,3.1-2.7c2.4,0.7,2,2.7,1.4,4.5c-0.5,1.5-1.4,2.9-3,3.3c-2.3,0.5-2.5,2-2.3,3.8
	c0.1,1.7-0.2,3.3-2.2,3.4c-2.1,0.1-2.6-1.6-2.5-3.4c0-1-0.1-1.9,0-2.9c0.2-2.1,0.1-3.6-2.7-4.2c-2.6-0.6-4-6.2-2.5-8.5
	c0.5-0.8,1.3-1.1,2.2-1c1.1,0.1,1.6,0.8,2,1.8C59.3,120.1,58.6,121.4,59.8,122.6z"/>
<path class="st3" d="M158,158c0-2.4,0-4.5,0-6.6c0-1.7,0.7-2.8,2.5-2.8c1.8,0,2.2,1.3,2.2,2.8c0,3,0,6.1,0,9.1
	c0.4-0.1,0.7,0,0.7-0.1c0.4-1.6,0.9-3.4,3.1-2.7c2.4,0.7,2,2.7,1.4,4.5c-0.5,1.5-1.4,2.9-3,3.3c-2.3,0.5-2.5,2-2.3,3.8
	c0.1,1.7-0.2,3.3-2.2,3.4c-2.1,0.1-2.6-1.6-2.5-3.4c0-1-0.1-1.9,0-2.9c0.2-2.1,0.1-3.6-2.7-4.2c-2.6-0.6-4-6.2-2.5-8.5
	c0.5-0.8,1.3-1.1,2.2-1c1.1,0.1,1.6,0.8,2,1.8C157.6,155.5,156.8,156.7,158,158z"/>
<path class="st2" d="M232.8,138.7c0-2.1,0-4.2,0-6.3c0-1.7,0.7-2.8,2.5-2.8c1.7,0.1,2.2,1.3,2.2,2.8c0,3.1,0,6.2,0,9.4
	c0.4-0.1,0.7-0.2,0.7-0.3c0.3-1.8,0.9-3.7,3.2-2.9c2.3,0.8,1.8,2.8,1.3,4.6c-0.5,1.5-1.5,2.9-3,3.2c-2.1,0.5-2.4,1.8-2.2,3.6
	c0,0.5,0,1,0,1.4c-0.1,1.4-1,2.1-2.2,2.1c-1.3,0-2.2-0.8-2.3-2.1c-0.1-1,0-2.1-0.1-3.2c-0.1-2.3,0.8-4.8-3-5.5
	c-2.4-0.5-3.5-6.3-2-8.3c0.6-0.8,1.4-1,2.3-0.9c1.1,0.1,1.7,0.9,1.9,1.9c0.2,1,0.2,2,0.3,3.1C232.4,138.7,232.6,138.7,232.8,138.7z"
	/>
<path class="st1" d="M26.7,97.9c0-2.6,0-4.5,0-6.4c0-1.6,0.1-3.3,2.2-3.3c2.3,0,2.5,1.6,2.5,3.4c0,2.9,0,5.8,0,8.7
	c1.1-0.1,0.7-1,1-1.5c0.5-1.2,1.3-2,2.6-1.7c1.5,0.3,2.2,1.5,2,3c-0.2,2.1-1.2,4.1-3.2,4.7c-2.3,0.7-2.6,2.1-2.4,4
	c0.1,0.9,0.1,1.8-0.6,2.5c-0.6,0.6-1.4,1.1-2.3,0.8c-0.9-0.3-1.6-0.8-1.7-1.7c-0.1-1.1-0.1-2.3-0.1-3.4c0-2.4,0.6-4.8-3.1-5.5
	c-2.4-0.5-3.5-5.9-2.1-8.1c0.6-0.9,1.4-1.2,2.5-1.1c1.1,0.2,1.6,0.9,1.8,1.9C25.9,95.2,25.4,96.3,26.7,97.9z"/>
<path class="st2" d="M106.9,100c0-2.1,0-4.2,0-6.3c0-1.7,0.7-2.8,2.5-2.8c1.7,0.1,2.2,1.3,2.2,2.8c0,3.1,0,6.2,0,9.4
	c0.4-0.1,0.7-0.2,0.7-0.3c0.3-1.8,0.9-3.7,3.2-2.9c2.3,0.8,1.8,2.8,1.3,4.6c-0.5,1.5-1.5,2.9-3,3.2c-2.1,0.5-2.4,1.8-2.2,3.6
	c0,0.5,0,1,0,1.4c-0.1,1.4-1,2.1-2.2,2.1c-1.3,0-2.2-0.8-2.3-2.1c-0.1-1,0-2.1-0.1-3.2c-0.1-2.3,0.8-4.8-3-5.5
	c-2.4-0.5-3.5-6.3-2-8.3c0.6-0.8,1.4-1,2.3-0.9c1.1,0.1,1.7,0.9,1.9,1.9c0.2,1,0.2,2,0.3,3.1C106.5,99.9,106.7,100,106.9,100z"/>
<path class="st3" d="M23,16.9c0-2.4,0-4.5,0-6.6c0-1.7,0.7-2.8,2.5-2.8c1.8,0,2.2,1.3,2.2,2.8c0,3,0,6.1,0,9.1
	c0.4-0.1,0.7,0,0.7-0.1c0.4-1.6,0.9-3.4,3.1-2.7c2.4,0.7,2,2.7,1.4,4.5c-0.5,1.5-1.4,2.9-3,3.3c-2.3,0.5-2.5,2-2.3,3.8
	c0.1,1.7-0.2,3.3-2.2,3.4c-2.1,0.1-2.6-1.6-2.5-3.4c0-1-0.1-1.9,0-2.9c0.2-2.1,0.1-3.6-2.7-4.2c-2.6-0.6-4-6.2-2.5-8.5
	c0.5-0.8,1.3-1.1,2.2-1c1.1,0.1,1.6,0.8,2,1.8C22.5,14.4,21.8,15.7,23,16.9z"/>
<path class="st1" d="M164.1,112.7c0-2.6,0-4.5,0-6.4c0-1.6,0.1-3.3,2.2-3.3c2.3,0,2.5,1.6,2.5,3.4c0,2.9,0,5.8,0,8.7
	c1.1-0.1,0.7-1,1-1.5c0.5-1.2,1.3-2,2.6-1.7c1.5,0.3,2.2,1.5,2,3c-0.2,2.1-1.2,4.1-3.2,4.7c-2.3,0.7-2.6,2.1-2.4,4
	c0.1,0.9,0.1,1.8-0.6,2.5c-0.6,0.6-1.4,1.1-2.3,0.8c-0.9-0.3-1.6-0.8-1.7-1.7c-0.1-1.1-0.1-2.3-0.1-3.4c0-2.4,0.6-4.8-3.1-5.5
	c-2.4-0.5-3.5-5.9-2.1-8.1c0.6-0.9,1.4-1.2,2.5-1.1c1.1,0.2,1.6,0.9,1.8,1.9C163.3,109.9,162.8,111,164.1,112.7z"/>
<path class="st4" d="M78,79.4c0-2,0-4.1,0-6.1c0-1.5,0.2-2.8,2.1-2.8c1.8,0,2.5,1.1,2.5,2.8c0,1.5,0,3.1,0,4.6c0,1.5,0,3.1,0,4.7
	c1-0.4,0.6-1.3,1-1.9c0.6-0.8,1.3-1.5,2.3-1.3c1.1,0.2,1.9,0.9,2,2.1c0.2,2.7-0.8,4.8-3.3,5.8c-1.7,0.6-2.1,1.6-2,3.2
	c0.1,0.7,0,1.4-0.1,2c-0.3,1.2-1.2,2.1-2.4,2c-1.3-0.1-2-1-2-2.4c0-1.7-0.1-3.5,0-5.2c0.1-1.6-0.4-2.3-2.1-2.8
	c-3.3-0.8-5-5.6-3.3-8.5c0.5-0.9,1.3-1.4,2.4-1.2c1,0.2,1.6,0.9,1.8,2C77.1,77.6,76.7,78.6,78,79.4z"/>
<path class="st4" d="M121.1,130c0-2,0-4.1,0-6.1c0-1.5,0.2-2.8,2.1-2.8c1.8,0,2.5,1.1,2.5,2.8c0,1.5,0,3.1,0,4.6c0,1.5,0,3.1,0,4.7
	c1-0.4,0.6-1.3,1-1.9c0.6-0.8,1.3-1.5,2.3-1.3c1.1,0.2,1.9,0.9,2,2.1c0.2,2.7-0.8,4.8-3.3,5.8c-1.7,0.6-2.1,1.6-2,3.2
	c0.1,0.7,0,1.4-0.1,2c-0.3,1.2-1.2,2.1-2.4,2c-1.3-0.1-2-1-2-2.4c0-1.7-0.1-3.5,0-5.2c0.1-1.6-0.4-2.3-2.1-2.8
	c-3.3-0.8-5-5.6-3.3-8.5c0.5-0.9,1.3-1.4,2.4-1.2c1,0.2,1.6,0.9,1.8,2C120.1,128.1,119.8,129.1,121.1,130z"/>
<path class="st4" d="M213.5,97c0-2,0-4.1,0-6.1c0-1.5,0.2-2.8,2.1-2.8c1.8,0,2.5,1.1,2.5,2.8c0,1.5,0,3.1,0,4.6c0,1.5,0,3.1,0,4.7
	c1-0.4,0.6-1.3,1-1.9c0.6-0.8,1.3-1.5,2.3-1.3c1.1,0.2,1.9,0.9,2,2.1c0.2,2.7-0.8,4.8-3.3,5.8c-1.7,0.6-2.1,1.6-2,3.2
	c0.1,0.7,0,1.4-0.1,2c-0.3,1.2-1.2,2.1-2.4,2c-1.3-0.1-2-1-2-2.4c0-1.7-0.1-3.5,0-5.2c0.1-1.6-0.4-2.3-2.1-2.8
	c-3.3-0.8-5-5.6-3.3-8.5c0.5-0.9,1.3-1.4,2.4-1.2c1,0.2,1.6,0.9,1.8,2C212.5,95.1,212.1,96.1,213.5,97z"/>
<path class="st1" d="M199.5,155.5c0-2.6,0-4.5,0-6.4c0-1.6,0.1-3.3,2.2-3.3c2.3,0,2.5,1.6,2.5,3.4c0,2.9,0,5.8,0,8.7
	c1.1-0.1,0.7-1,1-1.5c0.5-1.2,1.3-2,2.6-1.7c1.5,0.3,2.2,1.5,2,3c-0.2,2.1-1.2,4.1-3.2,4.7c-2.3,0.7-2.6,2.1-2.4,4
	c0.1,0.9,0.1,1.8-0.6,2.5c-0.6,0.6-1.4,1.1-2.3,0.8c-0.9-0.3-1.6-0.8-1.7-1.7c-0.1-1.1-0.1-2.3-0.1-3.4c0-2.4,0.6-4.8-3.1-5.5
	c-2.4-0.5-3.5-5.9-2.1-8.1c0.6-0.9,1.4-1.2,2.5-1.1c1.1,0.2,1.6,0.9,1.8,1.9C198.7,152.8,198.2,153.9,199.5,155.5z"/>
<path class="st4" d="M115.3,12.9c0-2,0-4.1,0-6.1c0-1.5,0.2-2.8,2.1-2.8c1.8,0,2.5,1.1,2.5,2.8c0,1.5,0,3.1,0,4.6c0,1.5,0,3.1,0,4.7
	c1-0.4,0.6-1.3,1-1.9c0.6-0.8,1.3-1.5,2.3-1.3c1.1,0.2,1.9,0.9,2,2.1c0.2,2.7-0.8,4.8-3.3,5.8c-1.7,0.6-2.1,1.6-2,3.2
	c0.1,0.7,0,1.4-0.1,2c-0.3,1.2-1.2,2.1-2.4,2c-1.3-0.1-2-1-2-2.4c0-1.7-0.1-3.5,0-5.2c0.1-1.6-0.4-2.3-2.1-2.8
	c-3.3-0.8-5-5.6-3.3-8.5c0.5-0.9,1.3-1.4,2.4-1.2c1,0.2,1.6,0.9,1.8,2C114.3,11,113.9,12,115.3,12.9z"/>
<path class="st1" d="M86.6,160.1c0-2.6,0-4.5,0-6.4c0-1.6,0.1-3.3,2.2-3.3c2.3,0,2.5,1.6,2.5,3.4c0,2.9,0,5.8,0,8.7
	c1.1-0.1,0.7-1,1-1.5c0.5-1.2,1.3-2,2.6-1.7c1.5,0.3,2.2,1.5,2,3c-0.2,2.1-1.2,4.1-3.2,4.7c-2.3,0.7-2.6,2.1-2.4,4
	c0.1,0.9,0.1,1.8-0.6,2.5c-0.6,0.6-1.4,1.1-2.3,0.8c-0.9-0.3-1.6-0.8-1.7-1.7c-0.1-1.1-0.1-2.3-0.1-3.4c0-2.4,0.6-4.8-3.1-5.5
	c-2.4-0.5-3.5-5.9-2.1-8.1c0.6-0.9,1.4-1.2,2.5-1.1c1.1,0.2,1.6,0.9,1.8,1.9C85.7,157.4,85.2,158.5,86.6,160.1z"/>
<path class="st0" d="M245.7,16.4c0-2,0-4.1,0-6.1c0-1.5,0.2-2.8,2.1-2.8c1.8,0,2.5,1.1,2.5,2.8c0,1.5,0,3.1,0,4.6c0,1.5,0,3.1,0,4.7
	c1-0.4,0.6-1.3,1-1.9c0.6-0.8,1.3-1.5,2.3-1.3c1.1,0.2,1.9,0.9,2,2.1c0.2,2.7-0.8,4.8-3.3,5.8c-1.7,0.6-2.1,1.6-2,3.2
	c0.1,0.7,0,1.4-0.1,2c-0.3,1.2-1.2,2.1-2.4,2c-1.3-0.1-2-1-2-2.4c0-1.7-0.1-3.5,0-5.2c0.1-1.6-0.4-2.3-2.1-2.8
	c-3.3-0.8-5-5.6-3.3-8.5c0.5-0.9,1.3-1.4,2.4-1.2c1,0.2,1.6,0.9,1.8,2C244.8,14.6,244.4,15.5,245.7,16.4z"/>
<path class="st2" d="M252.2,100c0-2.1,0-4.2,0-6.3c0-1.7,0.7-2.8,2.5-2.8c1.7,0.1,2.2,1.3,2.2,2.8c0,3.1,0,6.2,0,9.4
	c0.4-0.1,0.7-0.2,0.7-0.3c0.3-1.8,0.9-3.7,3.2-2.9c2.3,0.8,1.8,2.8,1.3,4.6c-0.5,1.5-1.5,2.9-3,3.2c-2.1,0.5-2.4,1.8-2.2,3.6
	c0,0.5,0,1,0,1.4c-0.1,1.4-1,2.1-2.2,2.1c-1.3,0-2.2-0.8-2.3-2.1c-0.1-1,0-2.1-0.1-3.2c-0.1-2.3,0.8-4.8-3-5.5
	c-2.4-0.5-3.5-6.3-2-8.3c0.6-0.8,1.4-1,2.3-0.9c1.1,0.1,1.7,0.9,1.9,1.9c0.2,1,0.2,2,0.3,3.1C251.8,99.9,252,100,252.2,100z"/>
<path class="st1" d="M223.8,49.8c0-2.6,0-4.5,0-6.4c0-1.6,0.1-3.3,2.2-3.3c2.3,0,2.5,1.6,2.5,3.4c0,2.9,0,5.8,0,8.7
	c1.1-0.1,0.7-1,1-1.5c0.5-1.2,1.3-2,2.6-1.7c1.5,0.3,2.2,1.5,2,3c-0.2,2.1-1.2,4.1-3.2,4.7c-2.3,0.7-2.6,2.1-2.4,4
	c0.1,0.9,0.1,1.8-0.6,2.5c-0.6,0.6-1.4,1.1-2.3,0.8c-0.9-0.3-1.6-0.8-1.7-1.7c-0.1-1.1-0.1-2.3-0.1-3.4c0-2.4,0.6-4.8-3.1-5.5
	c-2.4-0.5-3.5-5.9-2.1-8.1c0.6-0.9,1.4-1.2,2.5-1.1c1.1,0.2,1.6,0.9,1.8,1.9C223,47.1,222.5,48.2,223.8,49.8z"/>
<path class="st4" d="M139.7,67.4c0-2,0-4.1,0-6.1c0-1.5,0.2-2.8,2.1-2.8c1.8,0,2.5,1.1,2.5,2.8c0,1.5,0,3.1,0,4.6c0,1.5,0,3.1,0,4.7
	c1-0.4,0.6-1.3,1-1.9c0.6-0.8,1.3-1.5,2.3-1.3c1.1,0.2,1.9,0.9,2,2.1c0.2,2.7-0.8,4.8-3.3,5.8c-1.7,0.6-2.1,1.6-2,3.2
	c0.1,0.7,0,1.4-0.1,2c-0.3,1.2-1.2,2.1-2.4,2c-1.3-0.1-2-1-2-2.4c0-1.7-0.1-3.5,0-5.2c0.1-1.6-0.4-2.3-2.1-2.8
	c-3.3-0.8-5-5.6-3.3-8.5c0.5-0.9,1.3-1.4,2.4-1.2c1,0.2,1.6,0.9,1.8,2C138.8,65.5,138.4,66.5,139.7,67.4z"/>
<path class="st3" d="M268.4,61.5c0-2.4,0-4.5,0-6.6c0-1.7,0.7-2.8,2.5-2.8c1.8,0,2.2,1.3,2.2,2.8c0,3,0,6.1,0,9.1
	c0.4-0.1,0.7,0,0.7-0.1c0.4-1.6,0.9-3.4,3.1-2.7c2.4,0.7,2,2.7,1.4,4.5c-0.5,1.5-1.4,2.9-3,3.3c-2.3,0.5-2.5,2-2.3,3.8
	c0.1,1.7-0.2,3.3-2.2,3.4c-2.1,0.1-2.6-1.6-2.5-3.4c0-1-0.1-1.9,0-2.9c0.2-2.1,0.1-3.6-2.7-4.2c-2.6-0.6-4-6.2-2.5-8.5
	c0.5-0.8,1.3-1.1,2.2-1c1.1,0.1,1.6,0.8,2,1.8C267.9,59,267.2,60.2,268.4,61.5z"/>
<path class="st2" d="M14.9,145.6c0-2.1,0-4.2,0-6.3c0-1.7,0.7-2.8,2.5-2.8c1.7,0.1,2.2,1.3,2.2,2.8c0,3.1,0,6.2,0,9.4
	c0.4-0.1,0.7-0.2,0.7-0.3c0.3-1.8,0.9-3.7,3.2-2.9c2.3,0.8,1.8,2.8,1.3,4.6c-0.5,1.5-1.5,2.9-3,3.2c-2.1,0.5-2.4,1.8-2.2,3.6
	c0,0.5,0,1,0,1.4c-0.1,1.4-1,2.1-2.2,2.1c-1.3,0-2.2-0.8-2.3-2.1c-0.1-1,0-2.1-0.1-3.2c-0.1-2.3,0.8-4.8-3-5.5
	c-2.4-0.5-3.5-6.3-2-8.3c0.6-0.8,1.4-1,2.3-0.9c1.1,0.1,1.7,0.9,1.9,1.9c0.2,1,0.2,2,0.3,3.1C14.5,145.6,14.7,145.6,14.9,145.6z"/>
<path class="st0" d="M187.8,234.1c0-2,0-4.1,0-6.1c0-1.5,0.2-2.8,2.1-2.8c1.8,0,2.5,1.1,2.5,2.8c0,1.5,0,3.1,0,4.6
	c0,1.5,0,3.1,0,4.7c1-0.4,0.6-1.3,1-1.9c0.6-0.8,1.3-1.5,2.3-1.3c1.1,0.2,1.9,0.9,2,2.1c0.2,2.7-0.8,4.8-3.3,5.8
	c-1.7,0.6-2.1,1.6-2,3.2c0.1,0.7,0,1.4-0.1,2c-0.3,1.2-1.2,2.1-2.4,2c-1.3-0.1-2-1-2-2.4c0-1.7-0.1-3.5,0-5.2
	c0.1-1.6-0.4-2.3-2.1-2.8c-3.3-0.8-5-5.6-3.3-8.5c0.5-0.9,1.3-1.4,2.4-1.2c1,0.2,1.6,0.9,1.8,2C186.9,232.2,186.5,233.2,187.8,234.1
	z"/>
<path class="st1" d="M158.3,198.9c0-2.6,0-4.5,0-6.4c0-1.6,0.1-3.3,2.2-3.3c2.3,0,2.5,1.6,2.5,3.4c0,2.9,0,5.8,0,8.7
	c1.1-0.1,0.7-1,1-1.5c0.5-1.2,1.3-2,2.6-1.7c1.5,0.3,2.2,1.5,2,3c-0.2,2.1-1.2,4.1-3.2,4.7c-2.3,0.7-2.6,2.1-2.4,4
	c0.1,0.9,0.1,1.8-0.6,2.5c-0.6,0.6-1.4,1.1-2.3,0.8c-0.9-0.3-1.6-0.8-1.7-1.7c-0.1-1.1-0.1-2.3-0.1-3.4c0-2.4,0.6-4.8-3.1-5.5
	c-2.4-0.5-3.5-5.9-2.1-8.1c0.6-0.9,1.4-1.2,2.5-1.1c1.1,0.2,1.6,0.9,1.8,1.9C157.5,196.2,157,197.3,158.3,198.9z"/>
<path class="st2" d="M60.4,205.8c0-2.1,0-4.2,0-6.3c0-1.7,0.7-2.8,2.5-2.8c1.7,0.1,2.2,1.3,2.2,2.8c0,3.1,0,6.2,0,9.4
	c0.4-0.1,0.7-0.2,0.7-0.3c0.3-1.8,0.9-3.7,3.2-2.9c2.3,0.8,1.8,2.8,1.3,4.6c-0.5,1.5-1.5,2.9-3,3.2c-2.1,0.5-2.4,1.8-2.2,3.6
	c0,0.5,0,1,0,1.4c-0.1,1.4-1,2.1-2.2,2.1c-1.3,0-2.2-0.8-2.3-2.1c-0.1-1,0-2.1-0.1-3.2c-0.1-2.3,0.8-4.8-3-5.5
	c-2.4-0.5-3.5-6.3-2-8.3c0.6-0.8,1.4-1,2.3-0.9c1.1,0.1,1.7,0.9,1.9,1.9c0.2,1,0.2,2,0.3,3.1C60,205.7,60.2,205.8,60.4,205.8z"/>
<path class="st2" d="M215.9,188.6c0-2.1,0-4.2,0-6.3c0-1.7,0.7-2.8,2.5-2.8c1.7,0.1,2.2,1.3,2.2,2.8c0,3.1,0,6.2,0,9.4
	c0.4-0.1,0.7-0.2,0.7-0.3c0.3-1.8,0.9-3.7,3.2-2.9c2.3,0.8,1.8,2.8,1.3,4.6c-0.5,1.5-1.5,2.9-3,3.2c-2.1,0.5-2.4,1.8-2.2,3.6
	c0,0.5,0,1,0,1.4c-0.1,1.4-1,2.1-2.2,2.1c-1.3,0-2.2-0.8-2.3-2.1c-0.1-1,0-2.1-0.1-3.2c-0.1-2.3,0.8-4.8-3-5.5
	c-2.4-0.5-3.5-6.3-2-8.3c0.6-0.8,1.4-1,2.3-0.9c1.1,0.1,1.7,0.9,1.9,1.9c0.2,1,0.2,2,0.3,3.1C215.5,188.5,215.7,188.5,215.9,188.6z"
	/>
<path class="st0" d="M43.4,231.7c0-2,0-4.1,0-6.1c0-1.5,0.2-2.8,2.1-2.8c1.8,0,2.5,1.1,2.5,2.8c0,1.5,0,3.1,0,4.6c0,1.5,0,3.1,0,4.7
	c1-0.4,0.6-1.3,1-1.9c0.6-0.8,1.3-1.5,2.3-1.3c1.1,0.2,1.9,0.9,2,2.1c0.2,2.7-0.8,4.8-3.3,5.8c-1.7,0.6-2.1,1.6-2,3.2
	c0.1,0.7,0,1.4-0.1,2c-0.3,1.2-1.2,2.1-2.4,2c-1.3-0.1-2-1-2-2.4c0-1.7-0.1-3.5,0-5.2c0.1-1.6-0.4-2.3-2.1-2.8
	c-3.3-0.8-5-5.6-3.3-8.5c0.5-0.9,1.3-1.4,2.4-1.2c1,0.2,1.6,0.9,1.8,2C42.4,229.8,42,230.8,43.4,231.7z"/>
<path class="st3" d="M100.6,214c0-2.4,0-4.5,0-6.6c0-1.7,0.7-2.8,2.5-2.8c1.8,0,2.2,1.3,2.2,2.8c0,3,0,6.1,0,9.1
	c0.4-0.1,0.7,0,0.7-0.1c0.4-1.6,0.9-3.4,3.1-2.7c2.4,0.7,2,2.7,1.4,4.5c-0.5,1.5-1.4,2.9-3,3.3c-2.3,0.5-2.5,2-2.3,3.8
	c0.1,1.7-0.2,3.3-2.2,3.4c-2.1,0.1-2.6-1.6-2.5-3.4c0-1-0.1-1.9,0-2.9c0.2-2.1,0.1-3.6-2.7-4.2c-2.6-0.6-4-6.2-2.5-8.5
	c0.5-0.8,1.3-1.1,2.2-1c1.1,0.1,1.6,0.8,2,1.8C100.1,211.5,99.4,212.8,100.6,214z"/>
<path class="st1" d="M35,271c0-2.6,0-4.5,0-6.4c0-1.6,0.1-3.3,2.2-3.3c2.3,0,2.5,1.6,2.5,3.4c0,2.9,0,5.8,0,8.7c1.1-0.1,0.7-1,1-1.5
	c0.5-1.2,1.3-2,2.6-1.7c1.5,0.3,2.2,1.5,2,3c-0.2,2.1-1.2,4.1-3.2,4.7c-2.3,0.7-2.6,2.1-2.4,4c0.1,0.9,0.1,1.8-0.6,2.5
	c-0.6,0.6-1.4,1.1-2.3,0.8c-0.9-0.3-1.6-0.8-1.7-1.7c-0.1-1.1-0.1-2.3-0.1-3.4c0-2.4,0.6-4.8-3.1-5.5c-2.4-0.5-3.5-5.9-2.1-8.1
	c0.6-0.9,1.4-1.2,2.5-1.1c1.1,0.2,1.6,0.9,1.8,1.9C34.2,268.3,33.7,269.4,35,271z"/>
<path class="st2" d="M115.2,273.1c0-2.1,0-4.2,0-6.3c0-1.7,0.7-2.8,2.5-2.8c1.7,0.1,2.2,1.3,2.2,2.8c0,3.1,0,6.2,0,9.4
	c0.4-0.1,0.7-0.2,0.7-0.3c0.3-1.8,0.9-3.7,3.2-2.9c2.3,0.8,1.8,2.8,1.3,4.6c-0.5,1.5-1.5,2.9-3,3.2c-2.1,0.5-2.4,1.8-2.2,3.6
	c0,0.5,0,1,0,1.4c-0.1,1.4-1,2.1-2.2,2.1c-1.3,0-2.2-0.8-2.3-2.1c-0.1-1,0-2.1-0.1-3.2c-0.1-2.3,0.8-4.8-3-5.5
	c-2.4-0.5-3.5-6.3-2-8.3c0.6-0.8,1.4-1,2.3-0.9c1.1,0.1,1.7,0.9,1.9,1.9c0.2,1,0.2,2,0.3,3.1C114.8,273.1,115,273.1,115.2,273.1z"/>
<path class="st3" d="M31.3,190c0-2.4,0-4.5,0-6.6c0-1.7,0.7-2.8,2.5-2.8c1.8,0,2.2,1.3,2.2,2.8c0,3,0,6.1,0,9.1
	c0.4-0.1,0.7,0,0.7-0.1c0.4-1.6,0.9-3.4,3.1-2.7c2.4,0.7,2,2.7,1.4,4.5c-0.5,1.5-1.4,2.9-3,3.3c-2.3,0.5-2.5,2-2.3,3.8
	c0.1,1.7-0.2,3.3-2.2,3.4c-2.1,0.1-2.6-1.6-2.5-3.4c0-1-0.1-1.9,0-2.9c0.2-2.1,0.1-3.6-2.7-4.2c-2.6-0.6-4-6.2-2.5-8.5
	c0.5-0.8,1.3-1.1,2.2-1c1.1,0.1,1.6,0.8,2,1.8C30.8,187.5,30.1,188.8,31.3,190z"/>
<path class="st1" d="M172.4,285.8c0-2.6,0-4.5,0-6.4c0-1.6,0.1-3.3,2.2-3.3c2.3,0,2.5,1.6,2.5,3.4c0,2.9,0,5.8,0,8.7
	c1.1-0.1,0.7-1,1-1.5c0.5-1.2,1.3-2,2.6-1.7c1.5,0.3,2.2,1.5,2,3c-0.2,2.1-1.2,4.1-3.2,4.7c-2.3,0.7-2.6,2.1-2.4,4
	c0.1,0.9,0.1,1.8-0.6,2.5c-0.6,0.6-1.4,1.1-2.3,0.8c-0.9-0.3-1.6-0.8-1.7-1.7c-0.1-1.1-0.1-2.3-0.1-3.4c0-2.4,0.6-4.8-3.1-5.5
	c-2.4-0.5-3.5-5.9-2.1-8.1c0.6-0.9,1.4-1.2,2.5-1.1c1.1,0.2,1.6,0.9,1.8,1.9C171.6,283.1,171.1,284.2,172.4,285.8z"/>
<path class="st4" d="M86.3,252.6c0-2,0-4.1,0-6.1c0-1.5,0.2-2.8,2.1-2.8c1.8,0,2.5,1.1,2.5,2.8c0,1.5,0,3.1,0,4.6c0,1.5,0,3.1,0,4.7
	c1-0.4,0.6-1.3,1-1.9c0.6-0.8,1.3-1.5,2.3-1.3c1.1,0.2,1.9,0.9,2,2.1c0.2,2.7-0.8,4.8-3.3,5.8c-1.7,0.6-2.1,1.6-2,3.2
	c0.1,0.7,0,1.4-0.1,2c-0.3,1.2-1.2,2.1-2.4,2c-1.3-0.1-2-1-2-2.4c0-1.7-0.1-3.5,0-5.2c0.1-1.6-0.4-2.3-2.1-2.8
	c-3.3-0.8-5-5.6-3.3-8.5c0.5-0.9,1.3-1.4,2.4-1.2c1,0.2,1.6,0.9,1.8,2C85.4,250.7,85,251.7,86.3,252.6z"/>
<path class="st4" d="M221.7,270.2c0-2,0-4.1,0-6.1c0-1.5,0.2-2.8,2.1-2.8c1.8,0,2.5,1.1,2.5,2.8c0,1.5,0,3.1,0,4.6
	c0,1.5,0,3.1,0,4.7c1-0.4,0.6-1.3,1-1.9c0.6-0.8,1.3-1.5,2.3-1.3c1.1,0.2,1.9,0.9,2,2.1c0.2,2.7-0.8,4.8-3.3,5.8
	c-1.7,0.6-2.1,1.6-2,3.2c0.1,0.7,0,1.4-0.1,2c-0.3,1.2-1.2,2.1-2.4,2c-1.3-0.1-2-1-2-2.4c0-1.7-0.1-3.5,0-5.2
	c0.1-1.6-0.4-2.3-2.1-2.8c-3.3-0.8-5-5.6-3.3-8.5c0.5-0.9,1.3-1.4,2.4-1.2c1,0.2,1.6,0.9,1.8,2C220.8,268.3,220.4,269.3,221.7,270.2
	z"/>
<path class="st4" d="M123.5,186c0-2,0-4.1,0-6.1c0-1.5,0.2-2.8,2.1-2.8c1.8,0,2.5,1.1,2.5,2.8c0,1.5,0,3.1,0,4.6c0,1.5,0,3.1,0,4.7
	c1-0.4,0.6-1.3,1-1.9c0.6-0.8,1.3-1.5,2.3-1.3c1.1,0.2,1.9,0.9,2,2.1c0.2,2.7-0.8,4.8-3.3,5.8c-1.7,0.6-2.1,1.6-2,3.2
	c0.1,0.7,0,1.4-0.1,2c-0.3,1.2-1.2,2.1-2.4,2c-1.3-0.1-2-1-2-2.4c0-1.7-0.1-3.5,0-5.2c0.1-1.6-0.4-2.3-2.1-2.8
	c-3.3-0.8-5-5.6-3.3-8.5c0.5-0.9,1.3-1.4,2.4-1.2c1,0.2,1.6,0.9,1.8,2C122.6,184.1,122.2,185.1,123.5,186z"/>
<path class="st0" d="M260.9,177.5c0-2,0-4.1,0-6.1c0-1.5,0.2-2.8,2.1-2.8c1.8,0,2.5,1.1,2.5,2.8c0,1.5,0,3.1,0,4.6
	c0,1.5,0,3.1,0,4.7c1-0.4,0.6-1.3,1-1.9c0.6-0.8,1.3-1.5,2.3-1.3c1.1,0.2,1.9,0.9,2,2.1c0.2,2.7-0.8,4.8-3.3,5.8
	c-1.7,0.6-2.1,1.6-2,3.2c0.1,0.7,0,1.4-0.1,2c-0.3,1.2-1.2,2.1-2.4,2c-1.3-0.1-2-1-2-2.4c0-1.7-0.1-3.5,0-5.2
	c0.1-1.6-0.4-2.3-2.1-2.8c-3.3-0.8-5-5.6-3.3-8.5c0.5-0.9,1.3-1.4,2.4-1.2c1,0.2,1.6,0.9,1.8,2C260,175.7,259.6,176.7,260.9,177.5z"
	/>
<path class="st2" d="M260.5,273.1c0-2.1,0-4.2,0-6.3c0-1.7,0.7-2.8,2.5-2.8c1.7,0.1,2.2,1.3,2.2,2.8c0,3.1,0,6.2,0,9.4
	c0.4-0.1,0.7-0.2,0.7-0.3c0.3-1.8,0.9-3.7,3.2-2.9c2.3,0.8,1.8,2.8,1.3,4.6c-0.5,1.5-1.5,2.9-3,3.2c-2.1,0.5-2.4,1.8-2.2,3.6
	c0,0.5,0,1,0,1.4c-0.1,1.4-1,2.1-2.2,2.1c-1.3,0-2.2-0.8-2.3-2.1c-0.1-1,0-2.1-0.1-3.2c-0.1-2.3,0.8-4.8-3-5.5
	c-2.4-0.5-3.5-6.3-2-8.3c0.6-0.8,1.4-1,2.3-0.9c1.1,0.1,1.7,0.9,1.9,1.9c0.2,1,0.2,2,0.3,3.1C260.1,273.1,260.3,273.1,260.5,273.1z"
	/>
<path class="st1" d="M232.1,222.9c0-2.6,0-4.5,0-6.4c0-1.6,0.1-3.3,2.2-3.3c2.3,0,2.5,1.6,2.5,3.4c0,2.9,0,5.8,0,8.7
	c1.1-0.1,0.7-1,1-1.5c0.5-1.2,1.3-2,2.6-1.7c1.5,0.3,2.2,1.5,2,3c-0.2,2.1-1.2,4.1-3.2,4.7c-2.3,0.7-2.6,2.1-2.4,4
	c0.1,0.9,0.1,1.8-0.6,2.5c-0.6,0.6-1.4,1.1-2.3,0.8c-0.9-0.3-1.6-0.8-1.7-1.7c-0.1-1.1-0.1-2.3-0.1-3.4c0-2.4,0.6-4.8-3.1-5.5
	c-2.4-0.5-3.5-5.9-2.1-8.1c0.6-0.9,1.4-1.2,2.5-1.1c1.1,0.2,1.6,0.9,1.8,1.9C231.3,220.2,230.8,221.3,232.1,222.9z"/>
<path class="st4" d="M148,240.6c0-2,0-4.1,0-6.1c0-1.5,0.2-2.8,2.1-2.8c1.8,0,2.5,1.1,2.5,2.8c0,1.5,0,3.1,0,4.6c0,1.5,0,3.1,0,4.7
	c1-0.4,0.6-1.3,1-1.9c0.6-0.8,1.3-1.5,2.3-1.3c1.1,0.2,1.9,0.9,2,2.1c0.2,2.7-0.8,4.8-3.3,5.8c-1.7,0.6-2.1,1.6-2,3.2
	c0.1,0.7,0,1.4-0.1,2c-0.3,1.2-1.2,2.1-2.4,2c-1.3-0.1-2-1-2-2.4c0-1.7-0.1-3.5,0-5.2c0.1-1.6-0.4-2.3-2.1-2.8
	c-3.3-0.8-5-5.6-3.3-8.5c0.5-0.9,1.3-1.4,2.4-1.2c1,0.2,1.6,0.9,1.8,2C147.1,238.7,146.7,239.7,148,240.6z"/>
<path class="st3" d="M276.7,234.6c0-2.4,0-4.5,0-6.6c0-1.7,0.7-2.8,2.5-2.8c1.8,0,2.2,1.3,2.2,2.8c0,3,0,6.1,0,9.1
	c0.4-0.1,0.7,0,0.7-0.1c0.4-1.6,0.9-3.4,3.1-2.7c2.4,0.7,2,2.7,1.4,4.5c-0.5,1.5-1.4,2.9-3,3.3c-2.3,0.5-2.5,2-2.3,3.8
	c0.1,1.7-0.2,3.3-2.2,3.4c-2.1,0.1-2.6-1.6-2.5-3.4c0-1-0.1-1.9,0-2.9c0.2-2.1,0.1-3.6-2.7-4.2c-2.6-0.6-4-6.2-2.5-8.5
	c0.5-0.8,1.3-1.1,2.2-1c1.1,0.1,1.6,0.8,2,1.8C276.2,232.1,275.5,233.4,276.7,234.6z"/>
</svg>
